<svg xmlns="http://www.w3.org/2000/svg" xmlns:xlink="http://www.w3.org/1999/xlink" width="50" zoomAndPan="magnify" viewBox="0 0 37.5 37.499999" height="50" preserveAspectRatio="xMidYMid meet" version="1.2"><defs><clipPath id="fb8db7b417"><path d="M 4.824219 0 L 27.765625 0 L 27.765625 37.007812 L 4.824219 37.007812 Z M 4.824219 0 "/></clipPath></defs><g id="d85ad7accd"><g clip-rule="nonzero" clip-path="url(#fb8db7b417)"><path style=" stroke:none;fill-rule:evenodd;fill:#234d38;fill-opacity:1;" d="M 26.523438 15.140625 C 26.445312 16.402344 24.875 16.933594 24.046875 15.996094 C 23.222656 15.0625 23.914062 13.570312 25.195312 13.640625 C 25.972656 13.6875 26.570312 14.363281 26.523438 15.140625 Z M 23.613281 29.808594 C 23.457031 29.519531 23.230469 29.03125 22.933594 28.226562 C 22.855469 28.019531 22.664062 27.875 22.445312 27.863281 C 22.25 27.851562 22.265625 27.378906 22.402344 27.296875 C 22.578125 27.191406 22.679688 27 22.671875 26.796875 C 22.644531 26.226562 22.488281 25.3125 22.300781 24.257812 C 21.976562 22.402344 21.574219 20.097656 21.75 18.769531 C 22.320312 18.4375 22.855469 18.296875 23.371094 18.328125 C 24.011719 20.121094 23.320312 25.601562 23.433594 26.152344 C 23.667969 27.34375 23.714844 28.972656 23.613281 29.808594 Z M 18.046875 20.828125 C 19.359375 19.15625 21.152344 17.207031 23.25 17.207031 C 23.234375 17.035156 23.214844 16.871094 23.191406 16.707031 C 22.777344 16.222656 22.539062 15.585938 22.582031 14.898438 C 22.597656 14.632812 22.65625 14.378906 22.746094 14.144531 C 22.476562 14.308594 22.058594 14.351562 21.695312 14.351562 C 20.894531 14.351562 20.253906 14.191406 19.886719 13.8125 C 18.011719 14.066406 15.816406 15.398438 13.488281 17.6875 C 14.132812 19.292969 15.628906 20.324219 18.046875 20.828125 Z M 21.515625 33.390625 C 21.0625 33.46875 20.652344 33.480469 20.292969 33.425781 L 19.40625 31.976562 C 19.382812 31.933594 19.351562 31.894531 19.3125 31.863281 C 17.21875 29.902344 17.777344 29.242188 17.207031 27.722656 C 17.984375 27.582031 18.628906 27.332031 19.125 26.96875 L 19.222656 27.453125 Z M 23.925781 35.890625 L 20.34375 35.890625 C 20.382812 35.515625 20.425781 35.058594 20.460938 34.5625 C 20.933594 34.597656 21.445312 34.554688 22 34.433594 C 22.445312 34.765625 22.816406 34.992188 23.121094 35.183594 C 23.621094 35.492188 23.835938 35.625 23.925781 35.890625 Z M 14.375 22.628906 C 14.109375 22.667969 13.910156 22.890625 13.898438 23.160156 C 13.835938 24.632812 13.402344 25.835938 12.578125 26.824219 C 11.808594 26.71875 11.050781 26.425781 10.316406 25.949219 C 10.792969 23.324219 9.871094 20.511719 12.605469 18.445312 C 13.441406 20.167969 15.136719 21.320312 17.664062 21.882812 C 17.480469 23.050781 17.828125 24.386719 18.703125 25.867188 C 18.289062 26.285156 17.621094 26.554688 16.714844 26.671875 C 16.289062 26.238281 15.683594 25.136719 14.980469 23.007812 C 14.898438 22.753906 14.644531 22.59375 14.375 22.628906 Z M 11.722656 28.113281 C 11.65625 28.214844 11.628906 28.339844 11.644531 28.460938 C 11.910156 31.0625 10.363281 31.539062 9.863281 33.636719 C 9.605469 33.628906 9.320312 33.59375 9.027344 33.527344 C 9.203125 32.429688 9.554688 30.300781 10.109375 27.125 C 10.6875 27.453125 11.285156 27.6875 11.890625 27.828125 C 11.84375 27.910156 11.789062 28.003906 11.722656 28.113281 Z M 9.636719 35.890625 L 6.125 35.890625 C 6.316406 35.433594 6.695312 35.210938 7.691406 34.632812 C 7.808594 34.566406 7.933594 34.492188 8.066406 34.414062 C 8.605469 34.601562 9.210938 34.722656 9.726562 34.75 Z M 21.832031 7.085938 C 22.144531 6.058594 22.414062 5.175781 22.511719 4.609375 C 22.542969 4.410156 22.464844 4.207031 22.304688 4.082031 C 22.179688 3.980469 22.222656 3.507812 22.417969 3.523438 C 22.636719 3.535156 22.84375 3.417969 22.945312 3.222656 C 23.339844 2.460938 23.621094 2.003906 23.816406 1.734375 C 23.816406 2.578125 23.570312 4.1875 23.1875 5.34375 C 23 5.914062 23.027344 11.644531 22.105469 13.207031 C 21.722656 13.285156 20.851562 13.226562 20.683594 13.039062 C 20.347656 11.953125 21.242188 9.023438 21.832031 7.085938 Z M 25.261719 12.527344 C 24.496094 12.484375 23.789062 12.785156 23.292969 13.292969 C 23.824219 11.949219 24.003906 9.671875 24.148438 7.253906 C 24.1875 6.59375 24.21875 6.019531 24.261719 5.636719 C 24.523438 4.832031 24.757812 3.707031 24.863281 2.753906 C 25.03125 1.273438 24.871094 0.542969 24.332031 0.320312 C 23.589844 0.0078125 22.917969 0.890625 22.09375 2.449219 C 21.164062 2.691406 20.859375 3.925781 21.359375 4.679688 C 21.25 5.183594 21.023438 5.921875 20.765625 6.757812 C 19.996094 9.28125 19.40625 11.371094 19.511719 12.746094 C 17.335938 13.121094 14.863281 14.679688 12.316406 17.289062 C 9.542969 19.128906 9.457031 21.585938 9.382812 23.757812 C 9.351562 24.585938 9.328125 25.363281 9.15625 26.0625 C 9.144531 26.109375 9.140625 26.15625 9.140625 26.203125 C 8.527344 29.6875 8.140625 32.03125 7.945312 33.25 C 7.867188 33.257812 7.792969 33.28125 7.726562 33.320312 C 7.511719 33.449219 7.3125 33.566406 7.132812 33.671875 C 5.730469 34.484375 5.09375 34.859375 4.871094 36.367188 C 4.820312 36.703125 5.082031 37.003906 5.421875 37.003906 L 10.152344 37.003906 C 10.445312 37.003906 10.6875 36.777344 10.710938 36.488281 L 10.882812 34.238281 C 10.996094 33.417969 11.351562 32.851562 11.726562 32.25 C 12.28125 31.363281 12.90625 30.359375 12.765625 28.535156 C 12.953125 28.226562 13.0625 28.019531 13.136719 27.855469 C 13.167969 27.835938 13.195312 27.808594 13.21875 27.785156 C 13.875 27.070312 14.351562 26.242188 14.652344 25.304688 C 15.003906 26.128906 15.355469 26.761719 15.707031 27.203125 C 15.722656 27.25 15.742188 27.296875 15.769531 27.339844 C 16.203125 28.007812 16.300781 28.519531 16.40625 29.058594 C 16.59375 30.011719 16.785156 30.996094 18.496094 32.621094 L 19.378906 34.0625 C 19.324219 35.042969 19.222656 35.925781 19.167969 36.375 C 19.125 36.707031 19.382812 37.003906 19.71875 37.003906 L 24.546875 37.003906 C 24.855469 37.003906 25.105469 36.75 25.101562 36.441406 C 25.089844 35.09375 24.539062 34.75 23.707031 34.234375 C 23.4375 34.070312 23.113281 33.867188 22.730469 33.589844 C 22.734375 33.511719 22.722656 33.429688 22.695312 33.355469 L 20.277344 27.101562 C 20.265625 27.027344 20.253906 26.957031 20.242188 26.890625 C 20.128906 26.257812 20.027344 25.707031 19.671875 25.316406 C 18.804688 23.855469 18.53125 22.617188 18.867188 21.628906 C 18.875 21.609375 18.878906 21.585938 18.886719 21.5625 C 19.496094 20.777344 20.066406 20.140625 20.597656 19.648438 C 20.617188 21.089844 20.9375 22.914062 21.203125 24.449219 C 21.355469 25.3125 21.488281 26.070312 21.539062 26.589844 C 20.953125 27.269531 21.097656 28.539062 21.992188 28.890625 C 22.574219 30.417969 23.144531 31.507812 23.953125 31.277344 C 24.515625 31.121094 24.761719 30.417969 24.78125 28.925781 C 24.789062 27.96875 24.695312 26.824219 24.535156 25.992188 C 24.539062 25.605469 24.578125 25.03125 24.621094 24.375 C 24.789062 21.71875 24.894531 19.226562 24.390625 17.886719 L 24.382812 17.480469 C 25.941406 17.941406 27.53125 16.84375 27.632812 15.210938 C 27.71875 13.816406 26.65625 12.613281 25.261719 12.527344 Z M 25.261719 12.527344 "/></g></g></svg>