<svg xmlns="http://www.w3.org/2000/svg" xmlns:xlink="http://www.w3.org/1999/xlink" width="50" zoomAndPan="magnify" viewBox="0 0 37.5 37.499999" height="50" preserveAspectRatio="xMidYMid meet" version="1.2"><defs><clipPath id="769126adfa"><path d="M 9.414062 0 L 27.917969 0 L 27.917969 37 L 9.414062 37 Z M 9.414062 0 "/></clipPath></defs><g id="ee07fbf406"><g clip-rule="nonzero" clip-path="url(#769126adfa)"><path style=" stroke:none;fill-rule:nonzero;fill:#234d38;fill-opacity:1;" d="M 25.886719 20.886719 C 25.636719 21.066406 25.355469 21.160156 25.046875 21.164062 C 24.867188 21.171875 24.71875 21.238281 24.59375 21.367188 C 24.46875 21.496094 24.410156 21.652344 24.414062 21.832031 C 24.421875 22.011719 24.488281 22.160156 24.617188 22.285156 C 24.746094 22.410156 24.902344 22.46875 25.082031 22.464844 C 25.671875 22.449219 26.199219 22.257812 26.664062 21.890625 C 27.289062 21.414062 27.601562 20.785156 27.59375 19.996094 L 27.59375 12.632812 C 27.59375 12.308594 27.5625 11.984375 27.5 11.664062 C 27.433594 11.34375 27.339844 11.03125 27.214844 10.730469 C 27.089844 10.429688 26.9375 10.140625 26.757812 9.871094 C 26.574219 9.597656 26.371094 9.347656 26.136719 9.117188 C 25.90625 8.882812 25.65625 8.679688 25.382812 8.496094 C 25.113281 8.316406 24.824219 8.164062 24.523438 8.039062 C 24.222656 7.914062 23.910156 7.820312 23.589844 7.753906 C 23.269531 7.691406 22.945312 7.660156 22.621094 7.660156 L 22.230469 7.660156 C 22.546875 7.203125 22.777344 6.707031 22.910156 6.167969 C 23.046875 5.625 23.082031 5.078125 23.015625 4.527344 C 22.953125 3.972656 22.789062 3.453125 22.53125 2.957031 C 22.277344 2.464844 21.9375 2.03125 21.523438 1.664062 C 21.105469 1.292969 20.640625 1.007812 20.117188 0.8125 C 19.597656 0.613281 19.058594 0.515625 18.503906 0.515625 C 17.945312 0.515625 17.410156 0.613281 16.886719 0.8125 C 16.367188 1.007812 15.898438 1.292969 15.484375 1.664062 C 15.066406 2.03125 14.730469 2.464844 14.472656 2.957031 C 14.214844 3.453125 14.054688 3.972656 13.988281 4.527344 C 13.925781 5.078125 13.960938 5.625 14.09375 6.167969 C 14.230469 6.707031 14.457031 7.203125 14.777344 7.660156 L 14.386719 7.660156 C 14.058594 7.660156 13.738281 7.691406 13.417969 7.753906 C 13.097656 7.820312 12.785156 7.914062 12.484375 8.039062 C 12.179688 8.164062 11.894531 8.316406 11.621094 8.496094 C 11.351562 8.679688 11.097656 8.882812 10.867188 9.117188 C 10.636719 9.347656 10.429688 9.597656 10.25 9.871094 C 10.066406 10.140625 9.914062 10.429688 9.789062 10.730469 C 9.664062 11.03125 9.570312 11.34375 9.507812 11.664062 C 9.445312 11.984375 9.414062 12.308594 9.414062 12.632812 L 9.414062 19.996094 C 9.414062 20.285156 9.460938 20.5625 9.554688 20.835938 C 9.648438 21.105469 9.785156 21.355469 9.960938 21.582031 C 10.136719 21.808594 10.34375 22 10.585938 22.160156 C 10.824219 22.316406 11.082031 22.429688 11.363281 22.503906 C 11.363281 22.503906 11.363281 22.59375 11.363281 22.59375 L 11.363281 36.226562 C 11.363281 36.40625 11.425781 36.5625 11.550781 36.6875 C 11.679688 36.8125 11.832031 36.878906 12.011719 36.878906 C 12.191406 36.878906 12.34375 36.8125 12.46875 36.6875 C 12.597656 36.5625 12.660156 36.40625 12.660156 36.226562 L 12.660156 22.59375 C 12.664062 22.097656 12.878906 21.726562 13.308594 21.476562 L 13.308594 33.988281 C 13.3125 34.375 13.386719 34.742188 13.535156 35.097656 C 13.683594 35.453125 13.898438 35.769531 14.171875 36.039062 C 14.445312 36.308594 14.761719 36.519531 15.117188 36.664062 C 15.472656 36.808594 15.84375 36.878906 16.230469 36.878906 C 16.671875 36.875 17.09375 36.777344 17.492188 36.585938 C 17.890625 36.394531 18.226562 36.125 18.503906 35.78125 C 18.78125 36.125 19.117188 36.394531 19.515625 36.585938 C 19.914062 36.777344 20.332031 36.875 20.777344 36.878906 C 21.160156 36.878906 21.53125 36.808594 21.890625 36.664062 C 22.246094 36.519531 22.5625 36.308594 22.835938 36.039062 C 23.109375 35.769531 23.320312 35.453125 23.472656 35.097656 C 23.621094 34.742188 23.695312 34.375 23.699219 33.988281 L 23.699219 15.453125 C 23.699219 15.273438 23.632812 15.121094 23.507812 14.992188 C 23.378906 14.867188 23.226562 14.800781 23.046875 14.800781 C 22.867188 14.800781 22.714844 14.867188 22.589844 14.992188 C 22.460938 15.121094 22.398438 15.273438 22.398438 15.453125 L 22.398438 33.988281 C 22.402344 34.433594 22.242188 34.804688 21.917969 35.113281 C 21.601562 35.429688 21.222656 35.585938 20.777344 35.578125 C 20.5625 35.582031 20.359375 35.542969 20.160156 35.460938 C 19.960938 35.382812 19.789062 35.269531 19.636719 35.117188 C 19.484375 34.96875 19.367188 34.796875 19.28125 34.601562 C 19.199219 34.40625 19.15625 34.203125 19.152344 33.988281 L 19.152344 23.242188 C 19.152344 23.0625 19.089844 22.910156 18.960938 22.785156 C 18.835938 22.65625 18.683594 22.59375 18.503906 22.59375 C 18.324219 22.59375 18.171875 22.65625 18.042969 22.785156 C 17.917969 22.910156 17.855469 23.0625 17.855469 23.242188 L 17.855469 33.988281 C 17.851562 34.203125 17.808594 34.40625 17.726562 34.601562 C 17.640625 34.796875 17.523438 34.96875 17.371094 35.117188 C 17.21875 35.269531 17.042969 35.382812 16.847656 35.460938 C 16.648438 35.542969 16.445312 35.582031 16.230469 35.578125 C 15.78125 35.582031 15.398438 35.425781 15.082031 35.105469 C 14.761719 34.800781 14.605469 34.429688 14.609375 33.988281 L 14.609375 21.476562 C 15.039062 21.726562 15.253906 22.097656 15.257812 22.59375 C 15.257812 22.773438 15.320312 22.925781 15.445312 23.054688 C 15.574219 23.179688 15.726562 23.242188 15.90625 23.242188 C 16.085938 23.242188 16.238281 23.179688 16.367188 23.054688 C 16.492188 22.925781 16.554688 22.773438 16.554688 22.59375 C 16.554688 22.304688 16.507812 22.027344 16.414062 21.753906 C 16.320312 21.484375 16.183594 21.234375 16.007812 21.007812 C 15.832031 20.78125 15.625 20.589844 15.382812 20.433594 C 15.144531 20.273438 14.886719 20.160156 14.609375 20.085938 L 14.609375 15.453125 C 14.609375 15.273438 14.542969 15.121094 14.417969 14.992188 C 14.289062 14.867188 14.136719 14.800781 13.957031 14.800781 C 13.777344 14.800781 13.625 14.867188 13.5 14.992188 C 13.371094 15.121094 13.308594 15.273438 13.308594 15.453125 L 13.308594 20.085938 C 12.621094 20.273438 12.09375 20.675781 11.738281 21.296875 C 11.511719 21.246094 11.3125 21.144531 11.140625 20.988281 C 10.847656 20.722656 10.703125 20.394531 10.710938 19.996094 L 10.710938 12.632812 C 10.710938 12.273438 10.761719 11.921875 10.867188 11.578125 C 10.96875 11.234375 11.121094 10.910156 11.316406 10.609375 C 11.515625 10.308594 11.753906 10.046875 12.027344 9.816406 C 12.304688 9.585938 12.609375 9.398438 12.9375 9.257812 C 13.398438 9.054688 13.882812 8.953125 14.386719 8.960938 L 16.171875 8.960938 C 16.890625 9.390625 17.664062 9.609375 18.503906 9.609375 C 19.339844 9.609375 20.117188 9.390625 20.835938 8.960938 L 22.621094 8.960938 C 23.125 8.953125 23.605469 9.054688 24.066406 9.257812 C 24.398438 9.398438 24.703125 9.585938 24.976562 9.816406 C 25.253906 10.046875 25.492188 10.308594 25.6875 10.609375 C 25.886719 10.910156 26.039062 11.234375 26.140625 11.578125 C 26.242188 11.921875 26.296875 12.273438 26.292969 12.632812 L 26.292969 19.996094 C 26.308594 20.363281 26.171875 20.660156 25.886719 20.886719 Z M 15.257812 5.0625 C 15.257812 4.632812 15.339844 4.21875 15.503906 3.820312 C 15.667969 3.421875 15.902344 3.074219 16.207031 2.769531 C 16.511719 2.464844 16.863281 2.230469 17.261719 2.0625 C 17.660156 1.898438 18.074219 1.816406 18.503906 1.816406 C 18.933594 1.816406 19.347656 1.898438 19.746094 2.0625 C 20.144531 2.230469 20.496094 2.464844 20.796875 2.769531 C 21.101562 3.074219 21.335938 3.421875 21.503906 3.820312 C 21.667969 4.21875 21.75 4.632812 21.75 5.0625 C 21.75 5.492188 21.667969 5.90625 21.503906 6.304688 C 21.335938 6.703125 21.101562 7.054688 20.796875 7.359375 C 20.496094 7.664062 20.144531 7.898438 19.746094 8.0625 C 19.347656 8.226562 18.933594 8.308594 18.503906 8.308594 C 18.074219 8.308594 17.660156 8.226562 17.261719 8.0625 C 16.863281 7.898438 16.511719 7.664062 16.207031 7.359375 C 15.902344 7.054688 15.667969 6.703125 15.503906 6.304688 C 15.339844 5.90625 15.257812 5.492188 15.257812 5.0625 Z M 15.257812 5.0625 "/></g></g></svg>