<svg xmlns="http://www.w3.org/2000/svg" xmlns:xlink="http://www.w3.org/1999/xlink" width="50" zoomAndPan="magnify" viewBox="0 0 37.5 37.499999" height="50" preserveAspectRatio="xMidYMid meet" version="1.2"><defs><clipPath id="35ddcf3ca8"><path d="M 10 0.472656 L 20 0.472656 L 20 6 L 10 6 Z M 10 0.472656 "/></clipPath><clipPath id="5f03f4144f"><path d="M 2.996094 13 L 8 13 L 8 22 L 2.996094 22 Z M 2.996094 13 "/></clipPath><clipPath id="6c6cb6cf6c"><path d="M 2.996094 20 L 20 20 L 20 36.738281 L 2.996094 36.738281 Z M 2.996094 20 "/></clipPath><clipPath id="6a7cce2c14"><path d="M 17 0.472656 L 34.082031 0.472656 L 34.082031 36.738281 L 17 36.738281 Z M 17 0.472656 "/></clipPath><clipPath id="9fab57749c"><path d="M 29 13 L 34.082031 13 L 34.082031 22 L 29 22 Z M 29 13 "/></clipPath></defs><g id="5e28e18bc6"><g clip-rule="nonzero" clip-path="url(#35ddcf3ca8)"><path style=" stroke:none;fill-rule:nonzero;fill:#234d38;fill-opacity:1;" d="M 18.539062 5.285156 C 18.355469 5.285156 18.199219 5.222656 18.066406 5.097656 C 17.933594 4.972656 17.863281 4.820312 17.851562 4.636719 C 17.832031 4.289062 17.746094 3.953125 17.601562 3.636719 C 17.457031 3.316406 17.261719 3.035156 17.011719 2.789062 C 16.761719 2.542969 16.476562 2.347656 16.15625 2.207031 C 15.835938 2.066406 15.503906 1.984375 15.152344 1.96875 C 14.804688 1.949219 14.460938 1.992188 14.128906 2.101562 C 13.796875 2.210938 13.492188 2.371094 13.21875 2.59375 C 12.945312 2.8125 12.722656 3.074219 12.542969 3.375 C 12.367188 3.675781 12.25 4 12.191406 4.347656 C 12.15625 4.53125 12.0625 4.675781 11.910156 4.78125 C 11.757812 4.890625 11.585938 4.929688 11.402344 4.898438 C 11.21875 4.867188 11.070312 4.777344 10.960938 4.625 C 10.847656 4.472656 10.808594 4.304688 10.832031 4.121094 C 10.917969 3.609375 11.09375 3.128906 11.355469 2.679688 C 11.617188 2.230469 11.949219 1.84375 12.355469 1.519531 C 12.761719 1.191406 13.210938 0.949219 13.703125 0.789062 C 14.199219 0.632812 14.707031 0.5625 15.222656 0.589844 C 15.742188 0.617188 16.238281 0.734375 16.714844 0.945312 C 17.191406 1.15625 17.613281 1.445312 17.980469 1.808594 C 18.351562 2.175781 18.640625 2.59375 18.855469 3.066406 C 19.070312 3.539062 19.195312 4.035156 19.226562 4.554688 C 19.238281 4.742188 19.179688 4.910156 19.054688 5.050781 C 18.929688 5.195312 18.769531 5.269531 18.582031 5.28125 C 18.566406 5.285156 18.554688 5.285156 18.539062 5.285156 Z M 18.539062 5.285156 "/></g><path style=" stroke:none;fill-rule:nonzero;fill:#234d38;fill-opacity:1;" d="M 7.800781 9.644531 C 7.480469 9.644531 7.261719 9.492188 7.152344 9.191406 C 6.96875 8.671875 6.886719 8.136719 6.90625 7.585938 C 6.929688 7.035156 7.054688 6.511719 7.28125 6.007812 C 7.511719 5.507812 7.824219 5.066406 8.222656 4.6875 C 8.621094 4.308594 9.078125 4.019531 9.589844 3.820312 C 10.105469 3.617188 10.636719 3.519531 11.1875 3.527344 C 11.738281 3.535156 12.265625 3.644531 12.773438 3.859375 C 13.28125 4.074219 13.730469 4.375 14.121094 4.761719 C 14.511719 5.152344 14.8125 5.597656 15.027344 6.105469 C 15.09375 6.277344 15.085938 6.449219 15.015625 6.617188 C 14.941406 6.789062 14.820312 6.910156 14.652344 6.980469 C 14.480469 7.050781 14.308594 7.054688 14.136719 6.988281 C 13.964844 6.925781 13.839844 6.808594 13.761719 6.644531 C 13.617188 6.300781 13.414062 5.996094 13.148438 5.734375 C 12.886719 5.46875 12.585938 5.265625 12.242188 5.121094 C 11.898438 4.976562 11.542969 4.902344 11.167969 4.898438 C 10.796875 4.890625 10.4375 4.957031 10.09375 5.09375 C 9.746094 5.230469 9.4375 5.425781 9.167969 5.679688 C 8.898438 5.9375 8.6875 6.234375 8.535156 6.574219 C 8.378906 6.914062 8.296875 7.269531 8.28125 7.640625 C 8.265625 8.011719 8.324219 8.371094 8.449219 8.722656 C 8.488281 8.828125 8.5 8.933594 8.484375 9.046875 C 8.46875 9.15625 8.429688 9.257812 8.367188 9.351562 C 8.300781 9.441406 8.222656 9.515625 8.121094 9.566406 C 8.023438 9.617188 7.917969 9.644531 7.804688 9.644531 Z M 7.800781 9.644531 "/><g clip-rule="nonzero" clip-path="url(#5f03f4144f)"><path style=" stroke:none;fill-rule:nonzero;fill:#234d38;fill-opacity:1;" d="M 4.578125 21.902344 C 4.355469 21.902344 4.175781 21.8125 4.035156 21.640625 C 3.363281 20.789062 2.996094 19.703125 2.996094 18.574219 C 2.996094 16.363281 4.417969 14.441406 6.382812 14.003906 C 6.566406 13.960938 6.742188 13.992188 6.902344 14.09375 C 7.0625 14.195312 7.164062 14.339844 7.203125 14.523438 C 7.246094 14.710938 7.214844 14.882812 7.113281 15.042969 C 7.011719 15.203125 6.867188 15.304688 6.683594 15.347656 C 5.34375 15.644531 4.375 17.003906 4.375 18.574219 C 4.375 19.390625 4.640625 20.179688 5.117188 20.785156 C 5.296875 21.011719 5.324219 21.253906 5.199219 21.511719 C 5.074219 21.769531 4.867188 21.902344 4.578125 21.902344 Z M 4.578125 21.902344 "/></g><g clip-rule="nonzero" clip-path="url(#6c6cb6cf6c)"><path style=" stroke:none;fill-rule:nonzero;fill:#234d38;fill-opacity:1;" d="M 14.304688 36.394531 C 13.765625 36.398438 13.238281 36.3125 12.726562 36.140625 C 12.210938 35.96875 11.742188 35.71875 11.308594 35.394531 C 10.878906 35.066406 10.511719 34.679688 10.207031 34.234375 C 9.898438 33.789062 9.675781 33.304688 9.527344 32.785156 C 9.175781 32.851562 8.824219 32.871094 8.46875 32.847656 C 8.117188 32.820312 7.769531 32.753906 7.433594 32.640625 C 7.09375 32.53125 6.777344 32.378906 6.476562 32.1875 C 6.175781 31.996094 5.90625 31.769531 5.664062 31.507812 C 5.421875 31.25 5.214844 30.960938 5.046875 30.648438 C 4.875 30.335938 4.746094 30.007812 4.660156 29.664062 C 4.574219 29.320312 4.527344 28.96875 4.53125 28.613281 C 4.53125 28.257812 4.578125 27.910156 4.664062 27.5625 C 3.625 26.6875 2.992188 25.3125 2.992188 23.851562 C 2.992188 22.722656 3.363281 21.632812 4.035156 20.785156 C 4.152344 20.632812 4.308594 20.546875 4.496094 20.523438 C 4.6875 20.5 4.855469 20.550781 5.007812 20.667969 C 5.15625 20.785156 5.242188 20.941406 5.265625 21.132812 C 5.285156 21.320312 5.234375 21.492188 5.117188 21.640625 C 4.636719 22.246094 4.371094 23.03125 4.371094 23.851562 C 4.371094 25.042969 4.9375 26.144531 5.84375 26.726562 C 5.984375 26.816406 6.082031 26.9375 6.128906 27.097656 C 6.179688 27.253906 6.175781 27.410156 6.113281 27.5625 C 5.902344 28.089844 5.851562 28.632812 5.964844 29.191406 C 6.078125 29.75 6.335938 30.230469 6.734375 30.636719 C 7.136719 31.039062 7.617188 31.300781 8.175781 31.417969 C 8.730469 31.535156 9.273438 31.488281 9.804688 31.28125 C 9.90625 31.242188 10.007812 31.226562 10.113281 31.234375 C 10.222656 31.242188 10.320312 31.273438 10.410156 31.332031 C 10.503906 31.386719 10.578125 31.457031 10.636719 31.546875 C 10.695312 31.636719 10.730469 31.734375 10.742188 31.84375 C 10.789062 32.300781 10.921875 32.734375 11.136719 33.140625 C 11.351562 33.546875 11.636719 33.898438 11.988281 34.195312 C 12.335938 34.496094 12.730469 34.71875 13.167969 34.863281 C 13.605469 35.011719 14.054688 35.070312 14.511719 35.042969 C 14.972656 35.015625 15.410156 34.90625 15.828125 34.710938 C 16.246094 34.515625 16.609375 34.25 16.925781 33.914062 C 17.238281 33.578125 17.480469 33.195312 17.648438 32.765625 C 17.816406 32.335938 17.898438 31.894531 17.894531 31.433594 C 17.894531 31.242188 17.960938 31.078125 18.09375 30.945312 C 18.230469 30.8125 18.390625 30.742188 18.582031 30.742188 C 18.773438 30.742188 18.933594 30.8125 19.070312 30.945312 C 19.203125 31.078125 19.269531 31.242188 19.269531 31.433594 C 19.269531 31.757812 19.238281 32.082031 19.175781 32.402344 C 19.109375 32.71875 19.015625 33.03125 18.890625 33.332031 C 18.765625 33.632812 18.613281 33.917969 18.433594 34.1875 C 18.25 34.460938 18.042969 34.710938 17.8125 34.941406 C 17.582031 35.171875 17.332031 35.378906 17.0625 35.558594 C 16.792969 35.738281 16.503906 35.890625 16.203125 36.015625 C 15.902344 36.140625 15.59375 36.234375 15.273438 36.300781 C 14.953125 36.363281 14.628906 36.394531 14.304688 36.394531 Z M 14.304688 36.394531 "/></g><path style=" stroke:none;fill-rule:nonzero;fill:#234d38;fill-opacity:1;" d="M 6.53125 15.363281 C 6.355469 15.363281 6.207031 15.304688 6.074219 15.191406 C 5.164062 14.394531 4.664062 13.328125 4.664062 12.191406 C 4.664062 9.863281 6.816406 7.964844 9.460938 7.964844 C 12.105469 7.964844 14.257812 9.863281 14.257812 12.191406 C 14.257812 12.585938 14.195312 12.972656 14.078125 13.347656 C 14.019531 13.527344 13.90625 13.664062 13.738281 13.75 C 13.566406 13.835938 13.390625 13.851562 13.210938 13.792969 C 13.03125 13.734375 12.894531 13.621094 12.808594 13.453125 C 12.722656 13.285156 12.707031 13.109375 12.765625 12.925781 C 12.839844 12.6875 12.878906 12.445312 12.878906 12.191406 C 12.878906 10.621094 11.347656 9.339844 9.460938 9.339844 C 7.574219 9.339844 6.039062 10.621094 6.039062 12.191406 C 6.039062 12.925781 6.375 13.621094 6.984375 14.15625 C 7.222656 14.367188 7.285156 14.617188 7.171875 14.914062 C 7.0625 15.210938 6.847656 15.359375 6.53125 15.363281 Z M 6.53125 15.363281 "/><g clip-rule="nonzero" clip-path="url(#6a7cce2c14)"><path style=" stroke:none;fill-rule:nonzero;fill:#234d38;fill-opacity:1;" d="M 22.773438 36.394531 C 22.445312 36.394531 22.125 36.363281 21.804688 36.300781 C 21.484375 36.234375 21.175781 36.140625 20.875 36.015625 C 20.570312 35.890625 20.285156 35.738281 20.015625 35.558594 C 19.746094 35.378906 19.492188 35.171875 19.261719 34.941406 C 19.03125 34.710938 18.828125 34.460938 18.644531 34.1875 C 18.464844 33.917969 18.3125 33.632812 18.1875 33.332031 C 18.0625 33.03125 17.96875 32.71875 17.902344 32.402344 C 17.839844 32.082031 17.808594 31.757812 17.808594 31.433594 L 17.851562 4.582031 C 17.851562 4.566406 17.851562 4.554688 17.851562 4.539062 C 17.882812 4.019531 18.007812 3.527344 18.222656 3.054688 C 18.4375 2.582031 18.730469 2.164062 19.101562 1.800781 C 19.472656 1.433594 19.894531 1.148438 20.367188 0.9375 C 20.84375 0.730469 21.339844 0.613281 21.859375 0.585938 C 22.378906 0.5625 22.882812 0.628906 23.378906 0.789062 C 23.871094 0.949219 24.320312 1.191406 24.726562 1.519531 C 25.128906 1.84375 25.460938 2.230469 25.722656 2.679688 C 25.984375 3.128906 26.160156 3.609375 26.242188 4.121094 C 26.269531 4.308594 26.230469 4.476562 26.121094 4.628906 C 26.007812 4.78125 25.859375 4.871094 25.675781 4.902344 C 25.488281 4.933594 25.320312 4.894531 25.164062 4.785156 C 25.011719 4.675781 24.917969 4.53125 24.882812 4.34375 C 24.828125 4 24.710938 3.679688 24.535156 3.378906 C 24.359375 3.078125 24.132812 2.816406 23.863281 2.597656 C 23.59375 2.378906 23.289062 2.214844 22.960938 2.105469 C 22.628906 1.996094 22.289062 1.953125 21.941406 1.96875 C 21.589844 1.984375 21.257812 2.0625 20.9375 2.199219 C 20.617188 2.339844 20.332031 2.53125 20.082031 2.773438 C 19.832031 3.015625 19.632812 3.296875 19.488281 3.613281 C 19.339844 3.925781 19.253906 4.257812 19.226562 4.605469 L 19.183594 31.433594 C 19.183594 31.890625 19.269531 32.332031 19.4375 32.757812 C 19.605469 33.183594 19.847656 33.5625 20.164062 33.894531 C 20.476562 34.230469 20.839844 34.492188 21.257812 34.6875 C 21.671875 34.878906 22.109375 34.988281 22.566406 35.015625 C 23.023438 35.042969 23.46875 34.980469 23.902344 34.835938 C 24.335938 34.691406 24.730469 34.472656 25.078125 34.179688 C 25.429688 33.882812 25.714844 33.535156 25.929688 33.128906 C 26.144531 32.726562 26.28125 32.296875 26.332031 31.84375 C 26.34375 31.734375 26.378906 31.636719 26.4375 31.546875 C 26.496094 31.457031 26.570312 31.386719 26.664062 31.332031 C 26.753906 31.273438 26.851562 31.242188 26.960938 31.234375 C 27.066406 31.226562 27.167969 31.242188 27.269531 31.28125 C 27.800781 31.488281 28.34375 31.535156 28.898438 31.417969 C 29.457031 31.300781 29.9375 31.039062 30.339844 30.636719 C 30.738281 30.230469 30.996094 29.75 31.109375 29.191406 C 31.222656 28.636719 31.171875 28.089844 30.960938 27.5625 C 30.898438 27.410156 30.894531 27.253906 30.945312 27.097656 C 30.992188 26.9375 31.089844 26.816406 31.226562 26.726562 C 32.136719 26.144531 32.703125 25.042969 32.703125 23.851562 C 32.703125 23.03125 32.4375 22.246094 31.957031 21.640625 C 31.839844 21.492188 31.789062 21.320312 31.808594 21.132812 C 31.832031 20.941406 31.917969 20.785156 32.066406 20.667969 C 32.21875 20.550781 32.386719 20.5 32.578125 20.523438 C 32.765625 20.546875 32.921875 20.632812 33.039062 20.785156 C 33.710938 21.632812 34.078125 22.722656 34.078125 23.851562 C 34.078125 25.3125 33.449219 26.691406 32.410156 27.5625 C 32.496094 27.910156 32.542969 28.257812 32.542969 28.613281 C 32.542969 28.96875 32.5 29.320312 32.414062 29.664062 C 32.328125 30.007812 32.199219 30.335938 32.027344 30.648438 C 31.859375 30.960938 31.652344 31.25 31.410156 31.507812 C 31.167969 31.769531 30.898438 31.996094 30.597656 32.1875 C 30.296875 32.378906 29.980469 32.53125 29.640625 32.640625 C 29.304688 32.753906 28.957031 32.820312 28.605469 32.847656 C 28.25 32.871094 27.898438 32.851562 27.546875 32.785156 C 27.398438 33.304688 27.175781 33.789062 26.871094 34.234375 C 26.566406 34.679688 26.195312 35.066406 25.765625 35.390625 C 25.335938 35.71875 24.863281 35.96875 24.351562 36.140625 C 23.839844 36.308594 23.3125 36.394531 22.773438 36.394531 Z M 22.773438 36.394531 "/></g><path style=" stroke:none;fill-rule:nonzero;fill:#234d38;fill-opacity:1;" d="M 29.277344 9.644531 C 29.164062 9.644531 29.058594 9.617188 28.957031 9.566406 C 28.859375 9.515625 28.777344 9.441406 28.714844 9.351562 C 28.648438 9.257812 28.609375 9.15625 28.59375 9.046875 C 28.582031 8.933594 28.59375 8.828125 28.628906 8.722656 C 28.769531 8.371094 28.832031 8.003906 28.824219 7.625 C 28.816406 7.246094 28.738281 6.886719 28.585938 6.539062 C 28.433594 6.191406 28.222656 5.886719 27.949219 5.625 C 27.675781 5.363281 27.363281 5.164062 27.011719 5.023438 C 26.660156 4.886719 26.296875 4.820312 25.917969 4.828125 C 25.539062 4.835938 25.175781 4.917969 24.828125 5.070312 C 24.484375 5.21875 24.179688 5.433594 23.917969 5.703125 C 23.652344 5.976562 23.453125 6.289062 23.316406 6.644531 C 23.242188 6.816406 23.113281 6.933594 22.941406 7.003906 C 22.765625 7.074219 22.589844 7.070312 22.417969 7 C 22.246094 6.925781 22.121094 6.800781 22.050781 6.628906 C 21.976562 6.453125 21.976562 6.28125 22.046875 6.105469 C 22.152344 5.855469 22.28125 5.613281 22.433594 5.386719 C 22.585938 5.15625 22.757812 4.949219 22.953125 4.753906 C 23.144531 4.558594 23.355469 4.386719 23.582031 4.230469 C 23.808594 4.078125 24.046875 3.949219 24.300781 3.839844 C 24.550781 3.734375 24.8125 3.652344 25.078125 3.597656 C 25.347656 3.539062 25.617188 3.511719 25.890625 3.507812 C 26.164062 3.503906 26.4375 3.523438 26.707031 3.574219 C 26.976562 3.621094 27.238281 3.695312 27.492188 3.796875 C 27.75 3.898438 27.992188 4.019531 28.222656 4.167969 C 28.453125 4.3125 28.667969 4.480469 28.867188 4.671875 C 29.066406 4.859375 29.242188 5.066406 29.402344 5.289062 C 29.558594 5.511719 29.695312 5.75 29.808594 5.996094 C 29.921875 6.246094 30.007812 6.503906 30.070312 6.773438 C 30.132812 7.039062 30.167969 7.308594 30.179688 7.582031 C 30.1875 7.855469 30.171875 8.128906 30.128906 8.398438 C 30.085938 8.667969 30.015625 8.933594 29.921875 9.191406 C 29.8125 9.492188 29.597656 9.644531 29.277344 9.644531 Z M 29.277344 9.644531 "/><g clip-rule="nonzero" clip-path="url(#9fab57749c)"><path style=" stroke:none;fill-rule:nonzero;fill:#234d38;fill-opacity:1;" d="M 32.5 21.902344 C 32.210938 21.902344 32.003906 21.769531 31.878906 21.511719 C 31.753906 21.253906 31.78125 21.011719 31.960938 20.785156 C 32.441406 20.179688 32.703125 19.394531 32.703125 18.574219 C 32.703125 17.003906 31.734375 15.648438 30.394531 15.347656 C 30.210938 15.304688 30.066406 15.207031 29.964844 15.042969 C 29.863281 14.882812 29.832031 14.710938 29.875 14.527344 C 29.914062 14.339844 30.015625 14.195312 30.175781 14.09375 C 30.335938 13.992188 30.507812 13.960938 30.695312 14.003906 C 32.65625 14.441406 34.082031 16.363281 34.082031 18.574219 C 34.082031 19.703125 33.710938 20.789062 33.039062 21.640625 C 32.902344 21.8125 32.722656 21.902344 32.5 21.902344 Z M 32.5 21.902344 "/></g><path style=" stroke:none;fill-rule:nonzero;fill:#234d38;fill-opacity:1;" d="M 30.546875 15.363281 C 30.230469 15.363281 30.015625 15.214844 29.90625 14.917969 C 29.792969 14.621094 29.855469 14.367188 30.09375 14.160156 C 30.703125 13.625 31.035156 12.929688 31.035156 12.195312 C 31.035156 10.625 29.503906 9.34375 27.617188 9.34375 C 25.730469 9.34375 24.199219 10.625 24.199219 12.195312 C 24.199219 12.445312 24.234375 12.691406 24.3125 12.929688 C 24.371094 13.113281 24.355469 13.285156 24.269531 13.457031 C 24.183594 13.625 24.046875 13.738281 23.867188 13.796875 C 23.683594 13.855469 23.511719 13.839844 23.339844 13.753906 C 23.171875 13.664062 23.058594 13.53125 23 13.351562 C 22.878906 12.972656 22.820312 12.589844 22.820312 12.195312 C 22.820312 9.863281 24.972656 7.964844 27.617188 7.964844 C 30.261719 7.964844 32.414062 9.863281 32.414062 12.195312 C 32.414062 13.332031 31.914062 14.394531 31 15.195312 C 30.871094 15.308594 30.71875 15.363281 30.546875 15.363281 Z M 30.546875 15.363281 "/><path style=" stroke:none;fill-rule:nonzero;fill:#234d38;fill-opacity:1;" d="M 15.84375 20.121094 C 15.472656 20.121094 15.105469 20.085938 14.742188 20.011719 C 14.378906 19.941406 14.027344 19.832031 13.6875 19.691406 C 13.34375 19.550781 13.019531 19.375 12.710938 19.171875 C 12.402344 18.964844 12.121094 18.730469 11.859375 18.46875 C 11.597656 18.207031 11.363281 17.921875 11.15625 17.613281 C 10.949219 17.308594 10.777344 16.980469 10.636719 16.640625 C 10.492188 16.296875 10.386719 15.945312 10.3125 15.582031 C 10.242188 15.21875 10.203125 14.855469 10.203125 14.484375 C 10.203125 14.292969 10.269531 14.132812 10.40625 13.996094 C 10.539062 13.863281 10.703125 13.796875 10.894531 13.796875 C 11.082031 13.796875 11.246094 13.863281 11.378906 13.996094 C 11.515625 14.132812 11.582031 14.292969 11.582031 14.484375 C 11.582031 14.761719 11.609375 15.039062 11.664062 15.316406 C 11.71875 15.589844 11.800781 15.855469 11.90625 16.113281 C 12.015625 16.371094 12.144531 16.617188 12.300781 16.851562 C 12.457031 17.082031 12.632812 17.296875 12.832031 17.496094 C 13.027344 17.691406 13.246094 17.871094 13.476562 18.023438 C 13.710938 18.179688 13.953125 18.3125 14.214844 18.417969 C 14.472656 18.527344 14.738281 18.605469 15.011719 18.664062 C 15.285156 18.71875 15.5625 18.746094 15.84375 18.746094 C 16.03125 18.746094 16.195312 18.8125 16.328125 18.945312 C 16.464844 19.082031 16.53125 19.242188 16.53125 19.433594 C 16.53125 19.625 16.464844 19.785156 16.328125 19.921875 C 16.195312 20.054688 16.03125 20.121094 15.84375 20.121094 Z M 15.84375 20.121094 "/><path style=" stroke:none;fill-rule:nonzero;fill:#234d38;fill-opacity:1;" d="M 8.246094 23.113281 C 8.054688 23.113281 7.890625 23.046875 7.757812 22.910156 C 7.625 22.777344 7.554688 22.613281 7.554688 22.425781 C 7.554688 22.234375 7.625 22.070312 7.757812 21.9375 C 7.890625 21.800781 8.054688 21.734375 8.246094 21.734375 C 8.71875 21.734375 9.175781 21.644531 9.613281 21.460938 C 10.050781 21.28125 10.4375 21.023438 10.773438 20.6875 C 11.109375 20.351562 11.367188 19.964844 11.546875 19.527344 C 11.730469 19.089844 11.820312 18.632812 11.820312 18.160156 C 11.820312 17.96875 11.886719 17.808594 12.023438 17.671875 C 12.15625 17.539062 12.320312 17.46875 12.507812 17.46875 C 12.699219 17.46875 12.863281 17.539062 12.996094 17.671875 C 13.132812 17.808594 13.199219 17.96875 13.199219 18.160156 C 13.199219 18.484375 13.164062 18.804688 13.101562 19.125 C 13.039062 19.445312 12.945312 19.753906 12.820312 20.054688 C 12.695312 20.355469 12.542969 20.640625 12.363281 20.910156 C 12.179688 21.179688 11.976562 21.429688 11.746094 21.660156 C 11.515625 21.890625 11.265625 22.09375 10.996094 22.277344 C 10.726562 22.457031 10.441406 22.609375 10.140625 22.734375 C 9.839844 22.859375 9.53125 22.953125 9.210938 23.015625 C 8.890625 23.082031 8.570312 23.113281 8.246094 23.113281 Z M 8.246094 23.113281 "/><path style=" stroke:none;fill-rule:nonzero;fill:#234d38;fill-opacity:1;" d="M 10.890625 29.140625 C 10.703125 29.140625 10.539062 29.074219 10.40625 28.941406 C 10.269531 28.804688 10.203125 28.644531 10.203125 28.453125 C 10.203125 28.140625 10.234375 27.832031 10.296875 27.523438 C 10.355469 27.21875 10.449219 26.921875 10.566406 26.632812 C 10.6875 26.34375 10.832031 26.070312 11.007812 25.8125 C 11.179688 25.550781 11.378906 25.3125 11.597656 25.089844 C 11.820312 24.871094 12.058594 24.671875 12.320312 24.5 C 12.578125 24.324219 12.851562 24.179688 13.140625 24.058594 C 13.429688 23.941406 13.726562 23.847656 14.03125 23.789062 C 14.339844 23.726562 14.648438 23.695312 14.960938 23.695312 C 15.152344 23.695312 15.3125 23.761719 15.449219 23.898438 C 15.582031 24.03125 15.648438 24.195312 15.648438 24.382812 C 15.648438 24.574219 15.582031 24.738281 15.449219 24.871094 C 15.3125 25.007812 15.152344 25.074219 14.960938 25.074219 C 14.511719 25.074219 14.082031 25.160156 13.667969 25.332031 C 13.253906 25.503906 12.886719 25.746094 12.570312 26.0625 C 12.253906 26.378906 12.011719 26.746094 11.839844 27.160156 C 11.667969 27.574219 11.582031 28.003906 11.582031 28.453125 C 11.582031 28.644531 11.511719 28.804688 11.378906 28.941406 C 11.246094 29.074219 11.082031 29.140625 10.890625 29.140625 Z M 10.890625 29.140625 "/><path style=" stroke:none;fill-rule:nonzero;fill:#234d38;fill-opacity:1;" d="M 21.234375 20.121094 C 21.042969 20.121094 20.882812 20.054688 20.746094 19.921875 C 20.613281 19.785156 20.546875 19.625 20.546875 19.433594 C 20.546875 19.242188 20.613281 19.082031 20.746094 18.945312 C 20.882812 18.8125 21.042969 18.746094 21.234375 18.746094 C 21.515625 18.746094 21.792969 18.71875 22.066406 18.664062 C 22.339844 18.605469 22.605469 18.527344 22.863281 18.417969 C 23.121094 18.3125 23.367188 18.179688 23.601562 18.023438 C 23.832031 17.871094 24.046875 17.691406 24.246094 17.496094 C 24.445312 17.296875 24.621094 17.082031 24.777344 16.851562 C 24.929688 16.617188 25.0625 16.371094 25.167969 16.113281 C 25.277344 15.855469 25.359375 15.589844 25.414062 15.316406 C 25.46875 15.039062 25.496094 14.761719 25.496094 14.484375 C 25.496094 14.292969 25.5625 14.132812 25.699219 13.996094 C 25.832031 13.863281 25.992188 13.796875 26.183594 13.796875 C 26.375 13.796875 26.535156 13.863281 26.671875 13.996094 C 26.804688 14.132812 26.871094 14.292969 26.871094 14.484375 C 26.871094 14.855469 26.835938 15.21875 26.761719 15.582031 C 26.691406 15.945312 26.582031 16.296875 26.441406 16.640625 C 26.300781 16.980469 26.125 17.308594 25.921875 17.613281 C 25.714844 17.921875 25.480469 18.207031 25.21875 18.46875 C 24.957031 18.730469 24.671875 18.964844 24.367188 19.171875 C 24.058594 19.375 23.734375 19.550781 23.390625 19.691406 C 23.050781 19.832031 22.695312 19.941406 22.332031 20.011719 C 21.972656 20.085938 21.605469 20.121094 21.234375 20.121094 Z M 21.234375 20.121094 "/><path style=" stroke:none;fill-rule:nonzero;fill:#234d38;fill-opacity:1;" d="M 28.832031 23.113281 C 28.507812 23.113281 28.183594 23.082031 27.867188 23.015625 C 27.546875 22.953125 27.238281 22.859375 26.9375 22.734375 C 26.636719 22.609375 26.351562 22.457031 26.082031 22.277344 C 25.8125 22.09375 25.5625 21.890625 25.332031 21.660156 C 25.101562 21.429688 24.894531 21.179688 24.714844 20.910156 C 24.535156 20.640625 24.382812 20.355469 24.257812 20.054688 C 24.132812 19.753906 24.039062 19.445312 23.976562 19.125 C 23.910156 18.804688 23.878906 18.484375 23.878906 18.160156 C 23.878906 17.96875 23.945312 17.808594 24.082031 17.671875 C 24.214844 17.539062 24.378906 17.46875 24.566406 17.46875 C 24.757812 17.46875 24.921875 17.539062 25.054688 17.671875 C 25.1875 17.808594 25.257812 17.96875 25.257812 18.160156 C 25.257812 18.632812 25.347656 19.089844 25.53125 19.527344 C 25.710938 19.964844 25.96875 20.351562 26.304688 20.6875 C 26.640625 21.023438 27.027344 21.28125 27.464844 21.460938 C 27.902344 21.644531 28.359375 21.734375 28.832031 21.734375 C 29.023438 21.734375 29.183594 21.800781 29.320312 21.9375 C 29.453125 22.070312 29.519531 22.234375 29.519531 22.425781 C 29.519531 22.613281 29.453125 22.777344 29.320312 22.910156 C 29.183594 23.046875 29.023438 23.113281 28.832031 23.113281 Z M 28.832031 23.113281 "/><path style=" stroke:none;fill-rule:nonzero;fill:#234d38;fill-opacity:1;" d="M 26.183594 29.140625 C 25.996094 29.140625 25.832031 29.074219 25.699219 28.941406 C 25.5625 28.804688 25.496094 28.644531 25.496094 28.453125 C 25.496094 28.003906 25.410156 27.574219 25.238281 27.160156 C 25.066406 26.746094 24.824219 26.378906 24.503906 26.0625 C 24.1875 25.746094 23.824219 25.503906 23.410156 25.332031 C 22.996094 25.160156 22.566406 25.074219 22.117188 25.074219 C 21.925781 25.074219 21.765625 25.007812 21.628906 24.871094 C 21.496094 24.738281 21.429688 24.574219 21.429688 24.382812 C 21.429688 24.195312 21.496094 24.03125 21.628906 23.898438 C 21.765625 23.761719 21.925781 23.695312 22.117188 23.695312 C 22.429688 23.695312 22.738281 23.726562 23.042969 23.789062 C 23.351562 23.847656 23.648438 23.941406 23.9375 24.058594 C 24.226562 24.179688 24.5 24.324219 24.757812 24.5 C 25.019531 24.671875 25.257812 24.871094 25.480469 25.089844 C 25.699219 25.3125 25.898438 25.550781 26.070312 25.8125 C 26.242188 26.070312 26.390625 26.34375 26.511719 26.632812 C 26.628906 26.921875 26.71875 27.21875 26.78125 27.523438 C 26.84375 27.832031 26.875 28.140625 26.875 28.453125 C 26.875 28.644531 26.804688 28.804688 26.671875 28.941406 C 26.539062 29.074219 26.375 29.140625 26.183594 29.140625 Z M 26.183594 29.140625 "/><path style=" stroke:none;fill-rule:nonzero;fill:#234d38;fill-opacity:1;" d="M 12.507812 32.035156 C 12.320312 32.035156 12.15625 31.964844 12.023438 31.832031 C 11.886719 31.699219 11.820312 31.535156 11.820312 31.34375 C 11.820312 31.15625 11.886719 30.992188 12.023438 30.859375 C 12.15625 30.722656 12.320312 30.65625 12.507812 30.65625 C 12.800781 30.65625 13.082031 30.601562 13.351562 30.488281 C 13.621094 30.375 13.859375 30.214844 14.066406 30.011719 C 14.273438 29.804688 14.433594 29.566406 14.542969 29.296875 C 14.65625 29.027344 14.710938 28.746094 14.714844 28.453125 C 14.714844 28.261719 14.78125 28.101562 14.914062 27.964844 C 15.050781 27.832031 15.210938 27.765625 15.402344 27.765625 C 15.59375 27.765625 15.753906 27.832031 15.886719 27.964844 C 16.023438 28.101562 16.089844 28.261719 16.089844 28.453125 C 16.089844 28.925781 16 29.382812 15.816406 29.824219 C 15.632812 30.261719 15.375 30.648438 15.039062 30.984375 C 14.703125 31.320312 14.316406 31.578125 13.878906 31.761719 C 13.441406 31.941406 12.984375 32.03125 12.507812 32.035156 Z M 12.507812 32.035156 "/><path style=" stroke:none;fill-rule:nonzero;fill:#234d38;fill-opacity:1;" d="M 24.566406 32.035156 C 24.09375 32.03125 23.636719 31.941406 23.199219 31.761719 C 22.757812 31.578125 22.371094 31.320312 22.035156 30.984375 C 21.703125 30.648438 21.441406 30.261719 21.261719 29.824219 C 21.078125 29.382812 20.988281 28.925781 20.988281 28.453125 C 20.988281 28.261719 21.054688 28.101562 21.1875 27.964844 C 21.324219 27.832031 21.484375 27.765625 21.675781 27.765625 C 21.867188 27.765625 22.027344 27.832031 22.164062 27.964844 C 22.296875 28.101562 22.363281 28.261719 22.363281 28.453125 C 22.363281 28.746094 22.421875 29.027344 22.53125 29.296875 C 22.644531 29.566406 22.804688 29.804688 23.011719 30.011719 C 23.21875 30.214844 23.457031 30.375 23.726562 30.488281 C 23.996094 30.601562 24.277344 30.65625 24.566406 30.65625 C 24.757812 30.65625 24.921875 30.722656 25.054688 30.859375 C 25.1875 30.992188 25.257812 31.15625 25.257812 31.34375 C 25.257812 31.535156 25.1875 31.699219 25.054688 31.832031 C 24.921875 31.964844 24.757812 32.035156 24.566406 32.035156 Z M 24.566406 32.035156 "/></g></svg>