<svg xmlns="http://www.w3.org/2000/svg" xmlns:xlink="http://www.w3.org/1999/xlink" width="50" zoomAndPan="magnify" viewBox="0 0 37.5 37.499999" height="50" preserveAspectRatio="xMidYMid meet" version="1.2"><defs><clipPath id="74ceb6c6b4"><path d="M 2 13 L 14 13 L 14 37.007812 L 2 37.007812 Z M 2 13 "/></clipPath><clipPath id="555148dd1d"><path d="M 23 13 L 35 13 L 35 37.007812 L 23 37.007812 Z M 23 13 "/></clipPath></defs><g id="49b0674a2b"><path style=" stroke:none;fill-rule:nonzero;fill:#234d38;fill-opacity:1;" d="M 24.460938 29.402344 C 24.449219 29.300781 24.4375 29.195312 24.429688 29.089844 C 24.378906 28.449219 24.628906 27.71875 24.847656 27.226562 C 25.050781 26.757812 25.035156 26.234375 24.804688 25.78125 C 24.746094 25.664062 24.671875 25.554688 24.585938 25.457031 C 24.921875 24.527344 24.894531 23.136719 24.871094 22.628906 C 24.96875 22.558594 25.054688 22.484375 25.117188 22.398438 C 25.488281 21.921875 25.34375 21.351562 25.199219 20.800781 C 25.175781 20.703125 25.148438 20.601562 25.125 20.496094 C 24.980469 19.867188 25.121094 19.113281 25.265625 18.59375 C 25.398438 18.105469 25.308594 17.589844 25.019531 17.175781 C 25 17.148438 24.976562 17.132812 24.960938 17.109375 C 25.28125 15.257812 25.046875 14.191406 24.890625 13.75 C 24.960938 13.671875 25.023438 13.585938 25.066406 13.5 C 25.335938 12.957031 25.074219 12.425781 24.824219 11.914062 C 24.777344 11.820312 24.730469 11.722656 24.6875 11.628906 C 24.417969 11.039062 24.402344 10.273438 24.4375 9.734375 C 24.464844 9.324219 24.335938 8.929688 24.089844 8.605469 C 24.496094 7.179688 24.019531 6.007812 23.792969 5.574219 C 23.816406 5.53125 23.84375 5.492188 23.859375 5.453125 C 24.085938 4.890625 23.785156 4.378906 23.492188 3.886719 C 23.4375 3.796875 23.382812 3.707031 23.332031 3.613281 C 23.015625 3.042969 22.941406 2.28125 22.933594 1.742188 C 22.921875 1.238281 22.695312 0.769531 22.300781 0.445312 C 21.914062 0.132812 21.414062 0 20.921875 0.0976562 C 20.421875 0.191406 19.949219 0.398438 19.644531 0.558594 C 19.382812 0.691406 19.132812 0.796875 18.882812 0.871094 L 16.527344 1.582031 C 16.132812 1.703125 15.714844 1.714844 15.320312 1.621094 C 14.566406 1.441406 13.785156 1.253906 13.308594 1.578125 C 13.171875 1.675781 12.996094 1.859375 12.953125 2.199219 C 12.9375 2.3125 12.925781 2.417969 12.917969 2.515625 C 12.855469 3.121094 12.84375 3.230469 11.796875 3.386719 C 11.234375 3.472656 10.816406 3.71875 10.550781 4.113281 C 10.089844 4.800781 10.296875 5.679688 10.300781 5.699219 C 10.3125 5.769531 10.625 7.402344 11.714844 7.78125 C 11.863281 7.832031 12.015625 7.855469 12.175781 7.855469 C 12.679688 7.855469 13.234375 7.59375 13.84375 7.058594 C 14.535156 6.316406 15.390625 5.714844 15.625 5.789062 C 15.648438 5.796875 15.691406 5.875 15.710938 6.042969 C 15.734375 6.261719 15.796875 6.453125 15.878906 6.628906 C 15.867188 6.921875 15.851562 7.996094 16.234375 8.847656 C 15.710938 8.707031 15.214844 8.636719 14.859375 8.84375 C 14.710938 8.929688 14.523438 9.101562 14.453125 9.433594 C 14.429688 9.542969 14.410156 9.644531 14.390625 9.738281 C 14.28125 10.34375 14.261719 10.4375 13.199219 10.535156 C 12.621094 10.585938 12.179688 10.808594 11.886719 11.191406 C 11.386719 11.839844 11.523438 12.710938 11.527344 12.726562 C 11.535156 12.792969 11.714844 14.441406 12.765625 14.90625 C 13.371094 15.171875 14.097656 14.988281 14.949219 14.347656 C 15.699219 13.65625 16.59375 13.113281 16.828125 13.21875 C 16.847656 13.226562 16.886719 13.296875 16.890625 13.472656 C 16.902344 13.921875 17.054688 14.289062 17.335938 14.574219 C 17.265625 14.855469 17.15625 15.402344 17.152344 16.046875 C 16.757812 15.875 16.378906 15.78125 16.054688 15.894531 C 15.894531 15.945312 15.671875 16.078125 15.535156 16.390625 C 15.488281 16.496094 15.449219 16.59375 15.414062 16.683594 C 15.183594 17.25 15.144531 17.351562 14.082031 17.234375 C 13.480469 17.167969 12.996094 17.304688 12.625 17.628906 C 12.011719 18.171875 12 19.054688 12 19.0625 C 11.992188 19.132812 11.835938 20.777344 12.769531 21.433594 C 13.308594 21.8125 14.058594 21.777344 15.027344 21.308594 C 15.90625 20.773438 16.894531 20.417969 17.101562 20.554688 C 17.109375 20.5625 17.140625 20.628906 17.109375 20.816406 C 17.011719 21.347656 17.136719 21.820312 17.46875 22.191406 C 17.503906 22.230469 17.550781 22.261719 17.585938 22.296875 C 17.480469 22.542969 17.3125 22.984375 17.171875 23.585938 C 16.808594 23.367188 16.449219 23.226562 16.121094 23.292969 C 15.953125 23.320312 15.714844 23.421875 15.535156 23.714844 C 15.472656 23.808594 15.421875 23.902344 15.371094 23.984375 C 15.0625 24.511719 15.007812 24.605469 13.964844 24.351562 C 13.40625 24.214844 12.914062 24.277344 12.507812 24.542969 C 11.8125 24.992188 11.648438 25.859375 11.644531 25.875 C 11.628906 25.941406 11.234375 27.550781 12.0625 28.328125 C 12.542969 28.78125 13.289062 28.847656 14.316406 28.515625 C 15.25 28.113281 16.300781 27.886719 16.480469 28.050781 C 16.488281 28.058594 16.507812 28.128906 16.449219 28.308594 C 16.273438 28.820312 16.328125 29.308594 16.609375 29.722656 C 17.488281 31.035156 20.335938 31.269531 20.71875 31.296875 C 21.398438 31.390625 21.96875 31.4375 22.441406 31.4375 C 23.289062 31.4375 23.828125 31.285156 24.148438 30.96875 C 24.585938 30.546875 24.523438 29.964844 24.460938 29.402344 Z M 23.53125 8.128906 C 23.234375 7.972656 22.902344 7.902344 22.566406 7.941406 C 22.054688 7.996094 21.570312 8.167969 21.253906 8.304688 C 20.984375 8.417969 20.730469 8.5 20.46875 8.558594 L 18.0625 9.089844 C 17.792969 9.152344 17.515625 9.15625 17.246094 9.121094 C 16.777344 8.777344 16.601562 7.976562 16.554688 7.328125 C 17.945312 8.078125 20.625 7.175781 20.855469 7.09375 C 22.03125 6.773438 22.820312 6.453125 23.308594 6.097656 C 23.484375 6.515625 23.695312 7.253906 23.53125 8.128906 Z M 15.835938 5.164062 C 15.03125 4.898438 13.738281 6.203125 13.382812 6.585938 C 12.800781 7.097656 12.3125 7.289062 11.929688 7.15625 C 11.328125 6.949219 11.019531 5.949219 10.945312 5.5625 C 10.945312 5.558594 10.800781 4.921875 11.101562 4.476562 C 11.261719 4.238281 11.519531 4.097656 11.894531 4.039062 C 13.308594 3.824219 13.484375 3.449219 13.574219 2.582031 C 13.582031 2.492188 13.59375 2.390625 13.605469 2.285156 C 13.621094 2.164062 13.664062 2.136719 13.683594 2.121094 C 13.75 2.078125 13.855469 2.058594 13.988281 2.058594 C 14.320312 2.058594 14.808594 2.175781 15.167969 2.261719 C 15.675781 2.382812 16.214844 2.367188 16.714844 2.214844 L 19.074219 1.503906 C 19.363281 1.414062 19.648438 1.296875 19.945312 1.144531 C 20.214844 1.007812 20.621094 0.824219 21.042969 0.742188 C 21.34375 0.6875 21.644531 0.761719 21.882812 0.957031 C 22.125 1.15625 22.269531 1.445312 22.273438 1.753906 C 22.28125 2.367188 22.375 3.246094 22.757812 3.933594 C 22.8125 4.03125 22.867188 4.128906 22.925781 4.222656 C 23.191406 4.671875 23.34375 4.960938 23.246094 5.203125 C 23.082031 5.617188 22.214844 6.039062 20.667969 6.460938 L 20.648438 6.46875 C 19.890625 6.734375 17.726562 7.300781 16.796875 6.710938 C 16.542969 6.550781 16.402344 6.308594 16.367188 5.976562 C 16.308594 5.433594 16.046875 5.234375 15.835938 5.164062 Z M 17.089844 12.609375 C 16.996094 12.570312 16.894531 12.554688 16.789062 12.554688 C 15.992188 12.554688 14.867188 13.527344 14.527344 13.839844 C 13.90625 14.308594 13.402344 14.460938 13.03125 14.300781 C 12.449219 14.046875 12.222656 13.027344 12.179688 12.640625 C 12.179688 12.632812 12.085938 12.007812 12.410156 11.589844 C 12.589844 11.359375 12.875 11.226562 13.257812 11.191406 C 14.6875 11.0625 14.882812 10.722656 15.039062 9.859375 C 15.058594 9.769531 15.074219 9.675781 15.097656 9.574219 C 15.121094 9.453125 15.167969 9.425781 15.1875 9.414062 C 15.433594 9.273438 16.171875 9.507812 16.65625 9.664062 C 17.15625 9.824219 17.691406 9.847656 18.203125 9.734375 L 20.613281 9.203125 C 20.914062 9.136719 21.207031 9.039062 21.511719 8.910156 C 21.789062 8.792969 22.207031 8.644531 22.640625 8.59375 C 22.941406 8.558594 23.234375 8.660156 23.457031 8.871094 C 23.683594 9.085938 23.800781 9.386719 23.78125 9.691406 C 23.742188 10.304688 23.761719 11.1875 24.085938 11.902344 C 24.132812 12.003906 24.183594 12.105469 24.230469 12.203125 C 24.460938 12.671875 24.589844 12.972656 24.476562 13.207031 C 24.277344 13.605469 23.378906 13.960938 21.800781 14.265625 L 21.777344 14.269531 C 21.003906 14.480469 18.800781 14.878906 17.921875 14.226562 C 17.679688 14.046875 17.558594 13.796875 17.550781 13.460938 C 17.539062 12.914062 17.292969 12.695312 17.089844 12.609375 Z M 24.363281 16.636719 C 24.183594 16.550781 23.992188 16.488281 23.789062 16.472656 C 23.277344 16.433594 22.769531 16.507812 22.429688 16.582031 C 22.144531 16.640625 21.875 16.671875 21.609375 16.679688 L 19.140625 16.746094 C 18.726562 16.753906 18.324219 16.65625 17.972656 16.460938 C 17.921875 16.4375 17.875 16.410156 17.824219 16.382812 C 17.785156 15.824219 17.855469 15.3125 17.921875 14.976562 C 18.378906 15.171875 18.9375 15.242188 19.496094 15.242188 C 20.652344 15.242188 21.789062 14.949219 21.9375 14.910156 C 23.042969 14.695312 23.8125 14.460938 24.332031 14.179688 C 24.4375 14.582031 24.542969 15.375 24.363281 16.636719 Z M 17.476562 20.011719 C 17.335938 19.917969 17.160156 19.878906 16.964844 19.878906 C 16.179688 19.878906 15.074219 20.507812 14.710938 20.730469 C 14.003906 21.070312 13.480469 21.125 13.148438 20.894531 C 12.636719 20.535156 12.621094 19.5 12.65625 19.097656 C 12.65625 19.09375 12.675781 18.46875 13.066406 18.121094 C 13.289062 17.925781 13.605469 17.847656 14.007812 17.890625 C 15.425781 18.046875 15.699219 17.734375 16.023438 16.933594 C 16.058594 16.847656 16.09375 16.757812 16.136719 16.65625 C 16.1875 16.542969 16.242188 16.523438 16.265625 16.519531 C 16.535156 16.421875 17.207031 16.796875 17.652344 17.039062 C 18.109375 17.292969 18.625 17.417969 19.15625 17.40625 L 21.625 17.339844 C 21.933594 17.332031 22.238281 17.296875 22.566406 17.226562 C 22.863281 17.164062 23.304688 17.097656 23.734375 17.128906 C 24.039062 17.152344 24.304688 17.304688 24.480469 17.554688 C 24.65625 17.804688 24.710938 18.121094 24.628906 18.417969 C 24.464844 19.011719 24.308594 19.882812 24.480469 20.644531 C 24.507812 20.753906 24.535156 20.859375 24.5625 20.96875 C 24.691406 21.46875 24.757812 21.789062 24.597656 21.996094 C 24.324219 22.351562 23.371094 22.53125 21.765625 22.53125 C 21.761719 22.53125 21.757812 22.53125 21.757812 22.53125 L 21.734375 22.53125 C 20.929688 22.589844 18.683594 22.5625 17.960938 21.753906 C 17.761719 21.53125 17.695312 21.265625 17.757812 20.933594 C 17.855469 20.402344 17.65625 20.136719 17.476562 20.011719 Z M 24.027344 25.035156 C 23.921875 24.984375 23.808594 24.945312 23.691406 24.921875 C 23.195312 24.8125 22.675781 24.816406 22.328125 24.839844 C 22.035156 24.863281 21.765625 24.859375 21.503906 24.828125 L 19.046875 24.558594 C 18.640625 24.511719 18.253906 24.359375 17.933594 24.117188 C 17.875 24.074219 17.816406 24.03125 17.757812 23.988281 C 17.878906 23.398438 18.03125 22.949219 18.144531 22.675781 C 19.058594 23.128906 20.359375 23.207031 21.132812 23.207031 C 21.46875 23.207031 21.707031 23.195312 21.769531 23.191406 C 22.867188 23.191406 23.660156 23.109375 24.222656 22.9375 C 24.234375 23.472656 24.21875 24.371094 24.027344 25.035156 Z M 23.691406 30.496094 C 23.367188 30.8125 22.394531 30.863281 20.796875 30.640625 L 20.773438 30.640625 C 19.972656 30.585938 17.757812 30.257812 17.15625 29.355469 C 16.992188 29.113281 16.964844 28.839844 17.074219 28.519531 C 17.246094 28.003906 17.089844 27.714844 16.925781 27.566406 C 16.753906 27.40625 16.492188 27.347656 16.195312 27.347656 C 15.433594 27.347656 14.4375 27.746094 14.085938 27.898438 C 13.570312 28.066406 12.878906 28.191406 12.515625 27.847656 C 12.058594 27.421875 12.195312 26.394531 12.289062 26.015625 C 12.292969 26.007812 12.414062 25.386719 12.867188 25.097656 C 13.113281 24.933594 13.433594 24.898438 13.808594 24.992188 C 15.195312 25.332031 15.496094 25.078125 15.941406 24.316406 C 15.984375 24.238281 16.035156 24.152344 16.09375 24.0625 C 16.160156 23.953125 16.21875 23.945312 16.242188 23.9375 C 16.515625 23.894531 17.132812 24.34375 17.539062 24.648438 C 17.953125 24.957031 18.449219 25.152344 18.976562 25.210938 L 21.429688 25.484375 C 21.730469 25.519531 22.042969 25.523438 22.375 25.5 C 22.679688 25.476562 23.128906 25.472656 23.546875 25.566406 C 23.84375 25.628906 24.082031 25.8125 24.21875 26.082031 C 24.359375 26.355469 24.367188 26.675781 24.242188 26.960938 C 23.992188 27.527344 23.710938 28.363281 23.773438 29.140625 C 23.78125 29.253906 23.792969 29.363281 23.804688 29.472656 C 23.859375 29.988281 23.882812 30.3125 23.691406 30.496094 Z M 23.691406 30.496094 "/><g clip-rule="nonzero" clip-path="url(#74ceb6c6b4)"><path style=" stroke:none;fill-rule:nonzero;fill:#234d38;fill-opacity:1;" d="M 10.804688 29.664062 C 9.835938 28.269531 9.753906 27.824219 9.738281 27.824219 C 9.738281 27.824219 9.738281 27.828125 9.738281 27.828125 C 9.746094 27.789062 9.75 27.75 9.746094 27.710938 C 9.695312 27.234375 9.210938 23.003906 7.789062 21.867188 C 7.496094 21.632812 7.175781 21.535156 6.84375 21.574219 C 6.839844 21.574219 6.839844 21.574219 6.839844 21.574219 C 6.914062 21.359375 7.007812 21.148438 7.121094 20.945312 L 8.726562 17.988281 C 8.851562 17.765625 9.945312 15.757812 9.613281 14.652344 C 9.527344 14.367188 9.351562 14.152344 9.101562 14.023438 C 9.0625 14.003906 9.019531 13.992188 8.976562 13.988281 C 8.636719 13.949219 8.121094 14.160156 7.164062 15.949219 C 6.894531 16.449219 6.5625 16.9375 6.179688 17.394531 L 4.449219 19.464844 C 4.089844 19.898438 3.828125 20.417969 3.703125 20.96875 L 2.613281 25.746094 C 2.582031 25.832031 1.832031 27.820312 3.621094 29.515625 C 5.496094 31.285156 8.003906 34.664062 7.71875 36.628906 C 7.691406 36.808594 7.816406 36.976562 7.996094 37.003906 C 8.175781 37.023438 8.34375 36.902344 8.371094 36.722656 C 8.75 34.109375 5.398438 30.289062 4.078125 29.035156 C 2.617188 27.652344 3.203125 26.054688 3.242188 25.941406 L 4.347656 21.113281 C 4.449219 20.664062 4.660156 20.242188 4.957031 19.886719 L 6.6875 17.816406 C 7.097656 17.324219 7.453125 16.800781 7.742188 16.257812 C 8.398438 15.035156 8.761719 14.738281 8.882812 14.667969 C 8.925781 14.710938 8.957031 14.769531 8.980469 14.84375 C 9.171875 15.472656 8.574219 16.910156 8.148438 17.671875 L 6.539062 20.628906 C 6.179688 21.292969 5.980469 22.011719 5.941406 22.769531 C 5.9375 22.851562 5.933594 22.9375 5.929688 23.023438 C 5.863281 23.777344 5.949219 24.742188 6.097656 25.703125 C 6.164062 26.164062 6.253906 26.65625 6.371094 27.179688 C 6.371094 27.183594 6.371094 27.183594 6.371094 27.183594 L 6.75 28.800781 C 6.785156 28.953125 6.921875 29.054688 7.070312 29.054688 C 7.09375 29.054688 7.121094 29.054688 7.144531 29.046875 C 7.324219 29.003906 7.433594 28.828125 7.390625 28.652344 L 7.011719 27.039062 C 6.886719 26.421875 6.785156 25.839844 6.710938 25.3125 C 6.59375 24.382812 6.574219 23.625 6.589844 23.054688 C 6.621094 22.714844 6.683594 22.464844 6.785156 22.324219 C 6.839844 22.25 6.882812 22.234375 6.921875 22.230469 C 7.074219 22.214844 7.226562 22.261719 7.378906 22.382812 C 8.394531 23.195312 8.953125 26.507812 9.085938 27.753906 C 9.078125 28.234375 9.722656 29.265625 10.285156 30.070312 C 10.300781 30.09375 10.316406 30.109375 10.335938 30.125 C 11.917969 31.570312 12.476562 33.433594 12.667969 34.742188 C 12.695312 34.917969 12.695312 35.398438 12.410156 36.601562 C 12.367188 36.777344 12.476562 36.957031 12.65625 36.996094 C 12.679688 37.003906 12.707031 37.007812 12.730469 37.007812 C 12.878906 37.007812 13.015625 36.90625 13.050781 36.753906 C 13.292969 35.738281 13.382812 35.050781 13.320312 34.644531 C 13.117188 33.238281 12.511719 31.238281 10.804688 29.664062 Z M 10.804688 29.664062 "/></g><g clip-rule="nonzero" clip-path="url(#555148dd1d)"><path style=" stroke:none;fill-rule:nonzero;fill:#234d38;fill-opacity:1;" d="M 34.582031 25.792969 L 33.480469 20.96875 C 33.355469 20.417969 33.097656 19.898438 32.734375 19.460938 L 31.003906 17.394531 C 30.621094 16.9375 30.292969 16.449219 30.019531 15.949219 C 29.0625 14.160156 28.550781 13.949219 28.207031 13.988281 C 28.164062 13.992188 28.121094 14.003906 28.082031 14.023438 C 27.835938 14.152344 27.65625 14.367188 27.570312 14.652344 C 27.238281 15.757812 28.332031 17.765625 28.457031 17.984375 L 30.0625 20.945312 C 30.175781 21.148438 30.269531 21.359375 30.34375 21.574219 C 30.003906 21.535156 29.6875 21.632812 29.394531 21.867188 C 27.972656 23.003906 27.488281 27.234375 27.4375 27.765625 C 27.4375 27.78125 27.398438 28.199219 26.378906 29.664062 C 24.671875 31.238281 24.070312 33.238281 23.863281 34.644531 C 23.804688 35.050781 23.890625 35.738281 24.132812 36.753906 C 24.167969 36.90625 24.304688 37.007812 24.453125 37.007812 C 24.476562 37.007812 24.503906 37.003906 24.53125 36.996094 C 24.707031 36.957031 24.816406 36.777344 24.773438 36.601562 C 24.488281 35.398438 24.488281 34.917969 24.515625 34.742188 C 24.707031 33.433594 25.265625 31.570312 26.851562 30.125 C 26.867188 30.109375 26.882812 30.09375 26.898438 30.070312 C 27.460938 29.265625 28.105469 28.234375 28.097656 27.753906 C 28.230469 26.507812 28.789062 23.195312 29.804688 22.382812 C 29.960938 22.261719 30.109375 22.214844 30.265625 22.230469 C 30.300781 22.234375 30.34375 22.25 30.398438 22.324219 C 30.5 22.464844 30.566406 22.714844 30.59375 23.054688 C 30.609375 23.625 30.589844 24.382812 30.472656 25.3125 C 30.402344 25.839844 30.300781 26.421875 30.171875 27.039062 L 29.792969 28.652344 C 29.75 28.828125 29.859375 29.003906 30.039062 29.046875 C 30.0625 29.054688 30.089844 29.054688 30.113281 29.054688 C 30.261719 29.054688 30.398438 28.953125 30.433594 28.800781 L 30.8125 27.183594 C 30.8125 27.183594 30.816406 27.183594 30.816406 27.179688 C 30.929688 26.65625 31.019531 26.164062 31.085938 25.703125 C 31.234375 24.742188 31.320312 23.777344 31.253906 23.023438 C 31.25 22.9375 31.246094 22.851562 31.242188 22.769531 C 31.207031 22.011719 31.003906 21.292969 30.644531 20.628906 L 29.035156 17.667969 C 28.609375 16.910156 28.011719 15.472656 28.203125 14.84375 C 28.226562 14.769531 28.257812 14.714844 28.300781 14.671875 C 28.425781 14.746094 28.789062 15.046875 29.441406 16.257812 C 29.730469 16.800781 30.085938 17.324219 30.496094 17.816406 L 32.226562 19.886719 C 32.523438 20.242188 32.734375 20.664062 32.835938 21.113281 L 33.957031 25.988281 C 33.960938 26.003906 34.578125 27.644531 33.109375 29.035156 C 31.785156 30.289062 28.433594 34.109375 28.8125 36.722656 C 28.839844 36.902344 29.003906 37.023438 29.1875 37.003906 C 29.367188 36.976562 29.492188 36.808594 29.464844 36.628906 C 29.179688 34.664062 31.6875 31.285156 33.5625 29.515625 C 35.351562 27.820312 34.601562 25.832031 34.582031 25.792969 Z M 34.582031 25.792969 "/></g></g></svg>