<svg xmlns="http://www.w3.org/2000/svg" xmlns:xlink="http://www.w3.org/1999/xlink" width="50" zoomAndPan="magnify" viewBox="0 0 37.5 37.499999" height="50" preserveAspectRatio="xMidYMid meet" version="1.2"><defs><clipPath id="dc08370669"><path d="M 7.492188 18 L 29.695312 18 L 29.695312 37 L 7.492188 37 Z M 7.492188 18 "/></clipPath><clipPath id="360874e8b6"><path d="M 26 8 L 29.695312 8 L 29.695312 10 L 26 10 Z M 26 8 "/></clipPath></defs><g id="1d458cdaf3"><g clip-rule="nonzero" clip-path="url(#dc08370669)"><path style=" stroke:none;fill-rule:nonzero;fill:#234d38;fill-opacity:1;" d="M 29.691406 19.1875 C 29.710938 19.011719 29.65625 18.839844 29.539062 18.707031 C 29.421875 18.578125 29.253906 18.503906 29.082031 18.503906 L 26.621094 18.503906 C 26.359375 18.503906 26.125 18.667969 26.039062 18.914062 L 25.808594 19.585938 C 25.199219 22.027344 24.144531 23.5 22.683594 25.542969 L 22.367188 25.984375 C 22.136719 26.308594 21.761719 26.5 21.363281 26.5 L 21.347656 26.5 C 21.933594 25.84375 22.296875 24.984375 22.296875 24.039062 C 22.296875 22.003906 20.640625 20.347656 18.605469 20.347656 C 16.570312 20.347656 14.914062 22.003906 14.914062 24.039062 C 14.914062 24.984375 15.277344 25.84375 15.863281 26.5 C 15.464844 26.5 15.09375 26.304688 14.863281 25.984375 L 14.546875 25.539062 C 13.085938 23.5 12.03125 22.027344 11.40625 19.53125 L 11.191406 18.914062 C 11.101562 18.667969 10.871094 18.503906 10.609375 18.503906 L 8.148438 18.503906 C 7.972656 18.503906 7.808594 18.578125 7.691406 18.707031 C 7.574219 18.839844 7.519531 19.011719 7.539062 19.1875 C 7.84375 21.949219 8.84375 24.621094 10.425781 26.90625 L 13.683594 31.613281 L 13.683594 36.957031 L 14.914062 36.957031 L 14.914062 31.417969 C 14.914062 31.292969 14.875 31.171875 14.804688 31.070312 L 11.4375 26.207031 C 10.101562 24.277344 9.214844 22.050781 8.851562 19.734375 L 10.175781 19.734375 L 10.226562 19.882812 C 10.894531 22.550781 12.0625 24.1875 13.542969 26.253906 L 13.863281 26.699219 C 14.324219 27.34375 15.074219 27.730469 15.867188 27.730469 L 21.363281 27.730469 C 22.15625 27.730469 22.90625 27.34375 23.367188 26.699219 L 23.683594 26.257812 C 25.164062 24.1875 26.335938 22.554688 26.984375 19.9375 L 27.054688 19.734375 L 28.378906 19.734375 C 28.015625 22.050781 27.128906 24.277344 25.789062 26.207031 L 22.421875 31.070312 C 22.351562 31.171875 22.3125 31.292969 22.3125 31.417969 L 22.3125 36.957031 L 23.542969 36.957031 L 23.542969 31.613281 L 26.800781 26.90625 C 28.386719 24.621094 29.382812 21.949219 29.691406 19.1875 Z M 18.605469 21.578125 C 19.964844 21.578125 21.066406 22.683594 21.066406 24.039062 C 21.066406 25.394531 19.964844 26.5 18.605469 26.5 C 17.25 26.5 16.144531 25.394531 16.144531 24.039062 C 16.144531 22.683594 17.25 21.578125 18.605469 21.578125 Z M 18.605469 21.578125 "/></g><path style=" stroke:none;fill-rule:nonzero;fill:#234d38;fill-opacity:1;" d="M 18.28125 15.9375 C 18.382812 16.007812 18.503906 16.042969 18.625 16.042969 C 18.742188 16.042969 18.863281 16.007812 18.96875 15.9375 C 20.328125 15.023438 24.773438 11.769531 24.773438 8.324219 C 24.773438 6.65625 23.8125 5.40625 22.265625 5.058594 C 21.078125 4.792969 19.585938 5.144531 18.625 6.25 C 17.664062 5.144531 16.171875 4.789062 14.984375 5.058594 C 13.433594 5.40625 12.472656 6.65625 12.472656 8.324219 C 12.472656 11.769531 16.917969 15.023438 18.28125 15.9375 Z M 15.253906 6.257812 C 15.421875 6.222656 15.597656 6.203125 15.777344 6.203125 C 16.648438 6.203125 17.605469 6.648438 18.066406 7.628906 C 18.167969 7.84375 18.386719 7.984375 18.625 7.984375 C 18.863281 7.984375 19.078125 7.84375 19.179688 7.628906 C 19.742188 6.441406 21.019531 6.039062 21.996094 6.257812 C 22.460938 6.363281 23.542969 6.773438 23.542969 8.324219 C 23.542969 10.953125 19.960938 13.734375 18.625 14.679688 C 17.285156 13.734375 13.703125 10.953125 13.703125 8.324219 C 13.703125 6.773438 14.785156 6.363281 15.253906 6.257812 Z M 15.253906 6.257812 "/><g clip-rule="nonzero" clip-path="url(#360874e8b6)"><path style=" stroke:none;fill-rule:nonzero;fill:#234d38;fill-opacity:1;" d="M 26.621094 8.664062 L 29.082031 8.664062 L 29.082031 9.890625 L 26.621094 9.890625 Z M 26.621094 8.664062 "/></g><path style=" stroke:none;fill-rule:nonzero;fill:#234d38;fill-opacity:1;" d="M 8.167969 8.664062 L 10.628906 8.664062 L 10.628906 9.890625 L 8.167969 9.890625 Z M 8.167969 8.664062 "/><path style=" stroke:none;fill-rule:nonzero;fill:#234d38;fill-opacity:1;" d="M 18.007812 0.0507812 L 19.238281 0.0507812 L 19.238281 2.511719 L 18.007812 2.511719 Z M 18.007812 0.0507812 "/><path style=" stroke:none;fill-rule:nonzero;fill:#234d38;fill-opacity:1;" d="M 10.796875 2.945312 L 11.664062 2.078125 L 13.40625 3.816406 L 12.535156 4.6875 Z M 10.796875 2.945312 "/><path style=" stroke:none;fill-rule:nonzero;fill:#234d38;fill-opacity:1;" d="M 23.84375 3.816406 L 25.582031 2.078125 L 26.453125 2.949219 L 24.714844 4.6875 Z M 23.84375 3.816406 "/></g></svg>