<svg xmlns="http://www.w3.org/2000/svg" xmlns:xlink="http://www.w3.org/1999/xlink" width="50" zoomAndPan="magnify" viewBox="0 0 37.5 37.499999" height="50" preserveAspectRatio="xMidYMid meet" version="1.2"><defs><clipPath id="9691787995"><path d="M 15 21 L 35 21 L 35 36.882812 L 15 36.882812 Z M 15 21 "/></clipPath></defs><g id="e4d3931f2f"><path style=" stroke:none;fill-rule:nonzero;fill:#234d38;fill-opacity:1;" d="M 2.664062 13.605469 C 2.835938 13.664062 3.003906 13.652344 3.167969 13.574219 C 3.332031 13.492188 3.445312 13.367188 3.503906 13.195312 C 3.933594 11.9375 4.515625 10.753906 5.242188 9.640625 C 5.96875 8.527344 6.820312 7.519531 7.800781 6.621094 C 8.777344 5.71875 9.851562 4.953125 11.019531 4.320312 C 12.1875 3.6875 13.414062 3.207031 14.703125 2.878906 L 15.105469 4.796875 C 13.960938 5.089844 12.871094 5.523438 11.839844 6.097656 C 10.804688 6.667969 9.855469 7.359375 9 8.171875 C 8.140625 8.980469 7.394531 9.886719 6.761719 10.886719 C 6.132812 11.886719 5.636719 12.949219 5.277344 14.074219 C 5.222656 14.246094 5.242188 14.410156 5.324219 14.570312 C 5.410156 14.730469 5.535156 14.835938 5.707031 14.890625 C 5.878906 14.945312 6.042969 14.933594 6.203125 14.851562 C 6.363281 14.769531 6.472656 14.644531 6.53125 14.476562 C 6.859375 13.460938 7.304688 12.503906 7.871094 11.601562 C 8.4375 10.699219 9.109375 9.882812 9.882812 9.148438 C 10.65625 8.417969 11.507812 7.789062 12.4375 7.273438 C 13.367188 6.753906 14.347656 6.359375 15.375 6.085938 C 15.507812 6.496094 15.484375 7.414062 16.011719 7.554688 C 16.242188 7.636719 16.457031 7.597656 16.648438 7.441406 L 22.039062 3.003906 C 22.246094 2.835938 22.320312 2.621094 22.265625 2.359375 C 22.210938 2.097656 22.054688 1.933594 21.800781 1.859375 L 15.078125 -0.0351562 C 14.839844 -0.101562 14.628906 -0.0507812 14.449219 0.117188 C 14.042969 0.433594 14.378906 1.1875 14.433594 1.585938 C 13.03125 1.9375 11.695312 2.457031 10.425781 3.140625 C 9.15625 3.828125 7.988281 4.65625 6.925781 5.632812 C 5.863281 6.609375 4.933594 7.703125 4.144531 8.910156 C 3.351562 10.117188 2.722656 11.40625 2.253906 12.769531 C 2.195312 12.941406 2.207031 13.109375 2.285156 13.273438 C 2.367188 13.4375 2.492188 13.546875 2.664062 13.605469 Z M 20.226562 2.789062 L 16.648438 5.730469 L 15.769531 1.53125 Z M 20.226562 2.789062 "/><g clip-rule="nonzero" clip-path="url(#9691787995)"><path style=" stroke:none;fill-rule:nonzero;fill:#234d38;fill-opacity:1;" d="M 34.5 23.136719 C 34.328125 23.074219 34.160156 23.085938 33.996094 23.164062 C 33.832031 23.246094 33.722656 23.371094 33.660156 23.542969 C 33.234375 24.789062 32.664062 25.960938 31.941406 27.066406 C 31.222656 28.167969 30.378906 29.164062 29.410156 30.054688 C 28.441406 30.949219 27.378906 31.707031 26.222656 32.332031 C 25.0625 32.960938 23.847656 33.433594 22.570312 33.757812 L 22.167969 31.832031 C 23.359375 31.515625 24.484375 31.046875 25.554688 30.429688 C 26.621094 29.8125 27.589844 29.070312 28.460938 28.195312 C 29.332031 27.324219 30.074219 26.355469 30.691406 25.289062 C 31.308594 24.222656 31.777344 23.09375 32.097656 21.902344 C 32.140625 21.730469 32.117188 21.5625 32.023438 21.410156 C 31.933594 21.253906 31.800781 21.152344 31.628906 21.105469 C 31.453125 21.058594 31.289062 21.082031 31.132812 21.167969 C 30.976562 21.257812 30.871094 21.386719 30.820312 21.558594 C 30.535156 22.632812 30.113281 23.648438 29.558594 24.613281 C 29.003906 25.574219 28.335938 26.449219 27.554688 27.238281 C 26.769531 28.027344 25.898438 28.699219 24.941406 29.261719 C 23.980469 29.820312 22.96875 30.246094 21.894531 30.542969 L 21.730469 29.753906 C 21.707031 29.644531 21.65625 29.542969 21.578125 29.457031 C 21.503906 29.371094 21.410156 29.308594 21.300781 29.273438 C 21.195312 29.234375 21.082031 29.222656 20.96875 29.242188 C 20.855469 29.261719 20.753906 29.308594 20.667969 29.382812 L 15.273438 33.816406 C 15.074219 33.988281 15 34.203125 15.054688 34.460938 C 15.105469 34.71875 15.261719 34.886719 15.515625 34.960938 L 22.234375 36.855469 C 22.472656 36.925781 22.683594 36.875 22.863281 36.703125 C 23.296875 36.355469 22.898438 35.527344 22.84375 35.050781 C 24.230469 34.703125 25.554688 34.191406 26.8125 33.515625 C 28.074219 32.835938 29.230469 32.015625 30.285156 31.046875 C 31.335938 30.078125 32.257812 28.996094 33.039062 27.800781 C 33.820312 26.601562 34.445312 25.328125 34.90625 23.976562 C 34.96875 23.804688 34.957031 23.636719 34.878906 23.472656 C 34.800781 23.308594 34.671875 23.195312 34.5 23.136719 Z M 17.085938 34.035156 L 20.664062 31.089844 L 21.546875 35.292969 Z M 17.085938 34.035156 "/></g><path style=" stroke:none;fill-rule:nonzero;fill:#234d38;fill-opacity:1;" d="M 17.042969 27.886719 L 20.246094 27.886719 C 20.421875 27.882812 20.589844 27.851562 20.75 27.785156 C 20.910156 27.71875 21.050781 27.621094 21.175781 27.5 C 21.296875 27.375 21.394531 27.234375 21.460938 27.074219 C 21.527344 26.914062 21.558594 26.746094 21.558594 26.570312 L 21.558594 21.328125 L 26.804688 21.328125 C 26.976562 21.328125 27.144531 21.296875 27.304688 21.226562 C 27.464844 21.160156 27.609375 21.066406 27.730469 20.945312 C 27.855469 20.820312 27.949219 20.679688 28.015625 20.519531 C 28.082031 20.355469 28.117188 20.191406 28.117188 20.015625 L 28.117188 16.8125 C 28.117188 16.636719 28.082031 16.472656 28.015625 16.308594 C 27.949219 16.148438 27.855469 16.007812 27.730469 15.882812 C 27.609375 15.761719 27.464844 15.667969 27.304688 15.597656 C 27.144531 15.53125 26.976562 15.5 26.804688 15.5 L 21.558594 15.5 L 21.558594 10.257812 C 21.558594 10.082031 21.527344 9.914062 21.460938 9.753906 C 21.394531 9.59375 21.296875 9.449219 21.175781 9.328125 C 21.050781 9.203125 20.910156 9.109375 20.75 9.042969 C 20.589844 8.976562 20.421875 8.941406 20.246094 8.941406 L 17.042969 8.941406 C 16.871094 8.941406 16.703125 8.976562 16.542969 9.042969 C 16.378906 9.109375 16.238281 9.203125 16.117188 9.328125 C 15.992188 9.449219 15.898438 9.59375 15.832031 9.753906 C 15.765625 9.914062 15.730469 10.082031 15.730469 10.257812 L 15.730469 15.5 L 10.488281 15.5 C 10.3125 15.5 10.144531 15.53125 9.984375 15.597656 C 9.824219 15.667969 9.683594 15.761719 9.558594 15.882812 C 9.4375 16.007812 9.339844 16.148438 9.273438 16.308594 C 9.207031 16.472656 9.175781 16.636719 9.175781 16.8125 L 9.175781 20.015625 C 9.175781 20.191406 9.207031 20.355469 9.273438 20.519531 C 9.339844 20.679688 9.4375 20.820312 9.558594 20.945312 C 9.683594 21.066406 9.824219 21.160156 9.984375 21.226562 C 10.144531 21.296875 10.3125 21.328125 10.488281 21.328125 L 15.730469 21.328125 L 15.730469 26.570312 C 15.730469 26.746094 15.765625 26.914062 15.832031 27.074219 C 15.898438 27.234375 15.992188 27.375 16.117188 27.5 C 16.238281 27.621094 16.378906 27.71875 16.542969 27.785156 C 16.703125 27.851562 16.871094 27.882812 17.042969 27.886719 Z M 10.488281 16.816406 L 16.390625 16.816406 C 16.570312 16.816406 16.726562 16.753906 16.855469 16.625 C 16.984375 16.496094 17.050781 16.339844 17.050781 16.160156 L 17.042969 10.261719 L 20.242188 10.257812 L 20.242188 16.160156 C 20.242188 16.339844 20.304688 16.496094 20.433594 16.625 C 20.5625 16.753906 20.71875 16.816406 20.898438 16.816406 L 26.796875 16.8125 L 26.804688 20.007812 L 20.902344 20.007812 C 20.71875 20.007812 20.5625 20.074219 20.433594 20.203125 C 20.304688 20.332031 20.242188 20.488281 20.242188 20.667969 L 20.246094 26.566406 L 17.050781 26.570312 L 17.050781 20.667969 C 17.050781 20.488281 16.984375 20.332031 16.855469 20.203125 C 16.726562 20.074219 16.570312 20.007812 16.390625 20.007812 L 10.492188 20.015625 Z M 10.488281 16.816406 "/><path style=" stroke:none;fill-rule:nonzero;fill:#234d38;fill-opacity:1;" d="M 36.160156 11.613281 L 34.386719 11.613281 L 34.386719 9.847656 C 34.386719 9.664062 34.324219 9.511719 34.195312 9.382812 C 34.066406 9.253906 33.910156 9.1875 33.730469 9.1875 C 30.984375 9.210938 31.246094 8.808594 31.25 11.613281 L 29.484375 11.613281 C 29.304688 11.613281 29.148438 11.675781 29.019531 11.804688 C 28.890625 11.933594 28.828125 12.089844 28.828125 12.273438 C 28.851562 15.015625 28.445312 14.757812 31.25 14.75 L 31.25 16.519531 C 31.25 16.703125 31.316406 16.859375 31.445312 16.988281 C 31.574219 17.117188 31.730469 17.179688 31.910156 17.179688 C 34.664062 17.160156 34.394531 17.554688 34.386719 14.75 L 36.160156 14.75 C 36.34375 14.75 36.496094 14.683594 36.625 14.554688 C 36.753906 14.425781 36.820312 14.273438 36.820312 14.089844 L 36.820312 12.273438 C 36.820312 12.089844 36.753906 11.933594 36.625 11.804688 C 36.496094 11.675781 36.34375 11.613281 36.160156 11.613281 Z M 35.5 13.429688 L 33.730469 13.429688 C 33.546875 13.429688 33.390625 13.496094 33.261719 13.625 C 33.132812 13.753906 33.070312 13.90625 33.070312 14.089844 L 33.070312 15.863281 L 32.570312 15.863281 C 32.566406 13.121094 32.878906 13.433594 30.144531 13.429688 L 30.144531 12.933594 L 31.910156 12.933594 C 32.09375 12.933594 32.25 12.867188 32.378906 12.738281 C 32.507812 12.609375 32.570312 12.453125 32.570312 12.273438 L 32.570312 10.507812 L 33.070312 10.507812 C 33.070312 13.257812 32.773438 12.925781 35.5 12.933594 Z M 35.5 13.429688 "/><path style=" stroke:none;fill-rule:nonzero;fill:#234d38;fill-opacity:1;" d="M 7.761719 25.207031 C 7.941406 25.207031 8.097656 25.144531 8.226562 25.015625 C 8.355469 24.886719 8.421875 24.730469 8.421875 24.546875 L 8.421875 22.730469 C 8.421875 22.550781 8.355469 22.394531 8.226562 22.265625 C 8.097656 22.136719 7.941406 22.070312 7.761719 22.070312 L 5.988281 22.070312 L 5.988281 20.304688 C 5.988281 20.125 5.925781 19.96875 5.796875 19.839844 C 5.667969 19.710938 5.511719 19.648438 5.328125 19.648438 C 2.585938 19.671875 2.84375 19.265625 2.851562 22.070312 L 1.085938 22.070312 C 0.90625 22.070312 0.75 22.136719 0.621094 22.265625 C 0.492188 22.394531 0.425781 22.550781 0.425781 22.730469 C 0.449219 25.476562 0.046875 25.214844 2.851562 25.207031 C 2.847656 28.007812 2.570312 27.621094 5.328125 27.640625 C 5.511719 27.640625 5.667969 27.574219 5.796875 27.445312 C 5.925781 27.316406 5.988281 27.164062 5.988281 26.980469 L 5.988281 25.207031 Z M 4.667969 26.320312 L 4.171875 26.320312 C 4.167969 23.578125 4.480469 23.894531 1.746094 23.890625 L 1.746094 23.390625 L 3.511719 23.390625 C 3.695312 23.390625 3.851562 23.328125 3.976562 23.199219 C 4.105469 23.070312 4.171875 22.914062 4.171875 22.730469 L 4.171875 20.964844 L 4.667969 20.964844 C 4.667969 23.714844 4.375 23.382812 7.101562 23.390625 L 7.101562 23.886719 L 5.328125 23.886719 C 5.148438 23.886719 4.992188 23.953125 4.863281 24.082031 C 4.734375 24.210938 4.667969 24.367188 4.667969 24.546875 Z M 4.667969 26.320312 "/><path style=" stroke:none;fill-rule:nonzero;fill:#234d38;fill-opacity:1;" d="M 26.546875 6 L 27.539062 6 L 27.539062 6.992188 C 27.539062 7.175781 27.605469 7.332031 27.734375 7.460938 C 27.863281 7.589844 28.019531 7.652344 28.199219 7.652344 C 28.382812 7.652344 28.539062 7.589844 28.667969 7.460938 C 28.796875 7.332031 28.859375 7.175781 28.859375 6.992188 L 28.859375 6 L 29.851562 6 C 30.035156 6 30.191406 5.9375 30.320312 5.808594 C 30.449219 5.679688 30.511719 5.523438 30.511719 5.339844 C 30.511719 5.160156 30.449219 5.003906 30.320312 4.875 C 30.191406 4.746094 30.035156 4.679688 29.851562 4.679688 L 28.859375 4.679688 L 28.859375 3.6875 C 28.859375 3.503906 28.796875 3.351562 28.667969 3.222656 C 28.539062 3.09375 28.382812 3.027344 28.199219 3.027344 C 28.019531 3.027344 27.863281 3.09375 27.734375 3.222656 C 27.605469 3.351562 27.539062 3.503906 27.539062 3.6875 L 27.539062 4.679688 L 26.546875 4.679688 C 26.367188 4.683594 26.214844 4.75 26.089844 4.878906 C 25.960938 5.007812 25.898438 5.160156 25.898438 5.339844 C 25.898438 5.519531 25.960938 5.675781 26.089844 5.800781 C 26.214844 5.929688 26.367188 5.996094 26.546875 6 Z M 26.546875 6 "/><path style=" stroke:none;fill-rule:nonzero;fill:#234d38;fill-opacity:1;" d="M 11.488281 30.828125 L 10.492188 30.828125 L 10.492188 29.832031 C 10.492188 29.652344 10.429688 29.496094 10.300781 29.367188 C 10.171875 29.238281 10.015625 29.175781 9.832031 29.175781 C 9.652344 29.175781 9.496094 29.238281 9.367188 29.367188 C 9.238281 29.496094 9.175781 29.652344 9.175781 29.832031 L 9.175781 30.828125 L 8.179688 30.828125 C 8 30.828125 7.84375 30.890625 7.714844 31.019531 C 7.585938 31.148438 7.519531 31.304688 7.519531 31.488281 C 7.519531 31.667969 7.585938 31.824219 7.714844 31.953125 C 7.84375 32.082031 8 32.148438 8.179688 32.148438 L 9.175781 32.148438 L 9.175781 33.140625 C 9.175781 33.324219 9.238281 33.476562 9.367188 33.605469 C 9.496094 33.734375 9.652344 33.800781 9.832031 33.800781 C 10.015625 33.800781 10.171875 33.734375 10.300781 33.605469 C 10.429688 33.476562 10.492188 33.324219 10.492188 33.140625 L 10.492188 32.148438 L 11.488281 32.148438 C 11.667969 32.144531 11.820312 32.078125 11.945312 31.949219 C 12.070312 31.820312 12.132812 31.667969 12.132812 31.488281 C 12.132812 31.308594 12.070312 31.152344 11.945312 31.023438 C 11.820312 30.898438 11.667969 30.832031 11.488281 30.828125 Z M 11.488281 30.828125 "/></g></svg>