<svg xmlns="http://www.w3.org/2000/svg" xmlns:xlink="http://www.w3.org/1999/xlink" width="50" zoomAndPan="magnify" viewBox="0 0 37.5 37.499999" height="50" preserveAspectRatio="xMidYMid meet" version="1.2"><defs><clipPath id="4079a41009"><path d="M 1.109375 1.109375 L 35.894531 1.109375 L 35.894531 35.894531 L 1.109375 35.894531 Z M 1.109375 1.109375 "/></clipPath></defs><g id="07ccb1d67b"><g clip-rule="nonzero" clip-path="url(#4079a41009)"><path style=" stroke:none;fill-rule:nonzero;fill:#234d38;fill-opacity:1;" d="M 35.894531 18.5 C 35.894531 28.105469 28.105469 35.894531 18.5 35.894531 C 8.894531 35.894531 1.109375 28.105469 1.109375 18.5 C 1.109375 8.894531 8.894531 1.109375 18.5 1.109375 C 28.105469 1.109375 35.894531 8.894531 35.894531 18.5 Z M 35.894531 18.5 "/></g><path style=" stroke:none;fill-rule:nonzero;fill:#ffffff;fill-opacity:1;" d="M 11.933594 9.835938 L 25.417969 9.835938 C 26.699219 9.835938 27.746094 10.886719 27.746094 12.167969 L 27.746094 25.648438 C 27.746094 26.929688 26.699219 27.976562 25.417969 27.976562 L 11.933594 27.976562 C 10.652344 27.976562 9.605469 26.929688 9.605469 25.648438 L 9.605469 12.167969 C 9.605469 10.886719 10.652344 9.835938 11.933594 9.835938 Z M 22.820312 11.851562 C 22.371094 11.851562 22.003906 12.222656 22.003906 12.671875 L 22.003906 14.625 C 22.003906 15.074219 22.371094 15.441406 22.820312 15.441406 L 24.871094 15.441406 C 25.320312 15.441406 25.6875 15.074219 25.6875 14.625 L 25.6875 12.671875 C 25.6875 12.222656 25.320312 11.851562 24.871094 11.851562 Z M 25.695312 17.507812 L 24.097656 17.507812 C 24.25 18.003906 24.332031 18.523438 24.332031 19.066406 C 24.332031 22.082031 21.808594 24.53125 18.691406 24.53125 C 15.578125 24.53125 13.054688 22.082031 13.054688 19.066406 C 13.054688 18.523438 13.136719 18.003906 13.285156 17.507812 L 11.621094 17.507812 L 11.621094 25.171875 C 11.621094 25.570312 11.945312 25.890625 12.34375 25.890625 L 24.976562 25.890625 C 25.371094 25.890625 25.695312 25.570312 25.695312 25.171875 Z M 18.691406 15.339844 C 16.679688 15.339844 15.050781 16.917969 15.050781 18.871094 C 15.050781 20.816406 16.679688 22.398438 18.691406 22.398438 C 20.703125 22.398438 22.335938 20.816406 22.335938 18.871094 C 22.335938 16.917969 20.703125 15.339844 18.691406 15.339844 Z M 18.691406 15.339844 "/></g></svg>