<svg xmlns="http://www.w3.org/2000/svg" xmlns:xlink="http://www.w3.org/1999/xlink" width="50" zoomAndPan="magnify" viewBox="0 0 37.5 37.499999" height="50" preserveAspectRatio="xMidYMid meet" version="1.2"><defs><clipPath id="f70c44750c"><path d="M 0.832031 0.277344 L 36.175781 0.277344 L 36.175781 35.617188 L 0.832031 35.617188 Z M 0.832031 0.277344 "/></clipPath><clipPath id="89576ad308"><path d="M 18.503906 0.277344 C 8.742188 0.277344 0.832031 8.1875 0.832031 17.949219 C 0.832031 27.707031 8.742188 35.617188 18.503906 35.617188 C 28.261719 35.617188 36.175781 27.707031 36.175781 17.949219 C 36.175781 8.1875 28.261719 0.277344 18.503906 0.277344 Z M 18.503906 0.277344 "/></clipPath><clipPath id="6b118cb5e7"><path d="M 6.132812 5.546875 L 30.554688 5.546875 L 30.554688 30.710938 L 6.132812 30.710938 Z M 6.132812 5.546875 "/></clipPath></defs><g id="af31621a17"><g clip-rule="nonzero" clip-path="url(#f70c44750c)"><g clip-rule="nonzero" clip-path="url(#89576ad308)"><path style=" stroke:none;fill-rule:nonzero;fill:#234d38;fill-opacity:1;" d="M 0.832031 0.277344 L 36.175781 0.277344 L 36.175781 35.617188 L 0.832031 35.617188 Z M 0.832031 0.277344 "/></g></g><g clip-rule="nonzero" clip-path="url(#6b118cb5e7)"><path style=" stroke:none;fill-rule:nonzero;fill:#ffffff;fill-opacity:1;" d="M 18.335938 5.570312 C 11.550781 5.59375 6.132812 11.257812 6.21875 18.226562 C 6.234375 19.640625 6.480469 21.011719 6.949219 22.339844 C 7.421875 23.667969 8.09375 24.875 8.964844 25.96875 C 9.105469 26.144531 9.183594 26.347656 9.203125 26.574219 C 9.222656 26.796875 9.179688 27.011719 9.070312 27.207031 L 8.023438 29.136719 C 7.734375 29.671875 8.207031 30.304688 8.78125 30.152344 L 12.332031 29.226562 C 12.585938 29.15625 12.832031 29.183594 13.070312 29.300781 C 14.65625 30.09375 16.332031 30.511719 18.097656 30.550781 C 24.914062 30.707031 30.511719 25.109375 30.535156 18.101562 C 30.554688 11.167969 25.082031 5.546875 18.335938 5.570312 Z M 18.375 29.011719 C 17.675781 29.011719 16.984375 28.945312 16.296875 28.804688 C 15.609375 28.664062 14.945312 28.457031 14.296875 28.179688 C 13.652344 27.90625 13.035156 27.566406 12.453125 27.167969 C 11.871094 26.769531 11.332031 26.3125 10.839844 25.804688 C 10.34375 25.296875 9.902344 24.742188 9.511719 24.144531 C 9.125 23.546875 8.796875 22.917969 8.527344 22.253906 C 8.261719 21.589844 8.058594 20.902344 7.921875 20.199219 C 7.785156 19.492188 7.714844 18.78125 7.714844 18.0625 C 7.714844 12.011719 12.488281 7.109375 18.375 7.109375 C 24.242188 7.109375 29 11.972656 29.035156 17.992188 C 29.074219 24.027344 24.253906 29.011719 18.375 29.011719 Z M 18.375 29.011719 "/></g><path style=" stroke:none;fill-rule:nonzero;fill:#ffffff;fill-opacity:1;" d="M 16.472656 12.738281 L 16.476562 12.746094 L 17.113281 14.042969 C 17.253906 14.332031 17.296875 14.632812 17.242188 14.949219 C 17.1875 15.269531 17.042969 15.539062 16.8125 15.757812 C 16.585938 15.976562 16.441406 16.242188 16.386719 16.558594 C 16.328125 16.871094 16.371094 17.175781 16.507812 17.460938 C 16.890625 18.25 17.550781 19.335938 18.5625 20.117188 C 18.792969 20.296875 19.054688 20.394531 19.34375 20.410156 C 19.632812 20.425781 19.902344 20.359375 20.152344 20.203125 L 20.5625 19.945312 C 20.953125 19.703125 21.367188 19.664062 21.796875 19.828125 L 23.425781 20.464844 C 23.597656 20.535156 23.753906 20.632812 23.890625 20.765625 C 24.027344 20.898438 24.132812 21.050781 24.210938 21.226562 C 24.289062 21.402344 24.328125 21.585938 24.332031 21.777344 C 24.339844 21.972656 24.308594 22.15625 24.242188 22.335938 C 24.222656 22.386719 24.203125 22.4375 24.175781 22.488281 L 23.726562 23.386719 C 23.574219 23.6875 23.347656 23.90625 23.046875 24.042969 C 22.746094 24.183594 22.433594 24.210938 22.117188 24.125 C 19.558594 23.445312 13.46875 21.082031 12.976562 13.941406 C 12.957031 13.652344 13.015625 13.378906 13.15625 13.125 C 13.292969 12.875 13.488281 12.679688 13.738281 12.546875 L 14.570312 12.109375 C 14.734375 12.023438 14.914062 11.96875 15.097656 11.953125 C 15.285156 11.9375 15.46875 11.960938 15.648438 12.019531 C 15.824219 12.078125 15.984375 12.167969 16.128906 12.292969 C 16.273438 12.417969 16.386719 12.566406 16.472656 12.738281 Z M 16.472656 12.738281 "/></g></svg>